<svg width="26" height="26" viewBox="0 0 26 26" fill="none" xmlns="http://www.w3.org/2000/svg">
<path d="M22.5597 12.2797C21.5064 13.3355 20.0777 13.9286 18.588 13.9286L16.5033 13.9282V12.0148L18.588 12.0152C19.5714 12.0152 20.5145 11.6237 21.2098 10.9268C21.9052 10.2299 22.2958 9.28468 22.2958 8.29911C22.2958 7.31353 21.9052 6.36832 21.2098 5.67141C20.5145 4.9745 19.5714 4.58298 18.588 4.58298H7.26726V2.66964H18.588C20.0777 2.66964 21.5064 3.26275 22.5597 4.31847C23.6131 5.3742 24.2049 6.80608 24.2049 8.29911C24.2049 9.79213 23.6131 11.224 22.5597 12.2797Z" fill="#807F8C"/>
<path d="M7.46993 23.2723C5.98023 23.2723 4.55154 22.6792 3.49817 21.6235C2.44479 20.5678 1.85301 19.1359 1.85301 17.6429C1.85301 16.1498 2.44479 14.718 3.49817 13.6622C4.55154 12.6065 5.98023 12.0134 7.46993 12.0134H9.52561V13.9267H7.46993C6.48655 13.9267 5.54344 14.3183 4.84809 15.0152C4.15273 15.7121 3.76208 16.6573 3.76208 17.6429C3.76208 18.6284 4.15273 19.5736 4.84809 20.2706C5.54344 20.9675 6.48655 21.359 7.46993 21.359H18.7906V23.2723H7.46993Z" fill="#807F8C"/>
<path d="M16.735 12.971C16.735 15.0384 15.0628 16.7143 13 16.7143C10.9372 16.7143 9.26503 15.0384 9.26503 12.971C9.26503 10.9036 10.9372 9.22768 13 9.22768C15.0628 9.22768 16.735 10.9036 16.735 12.971ZM11.1792 12.971C11.1792 13.9788 11.9944 14.7958 13 14.7958C14.0056 14.7958 14.8208 13.9788 14.8208 12.971C14.8208 11.9631 14.0056 11.1461 13 11.1461C11.9944 11.1461 11.1792 11.9631 11.1792 12.971Z" fill="#807F8C"/>
<path d="M26 22.2567C26 24.3241 24.3278 26 22.265 26C20.2023 26 18.5301 24.3241 18.5301 22.2567C18.5301 20.1893 20.2023 18.5134 22.265 18.5134C24.3278 18.5134 26 20.1893 26 22.2567ZM20.4442 22.2567C20.4442 23.2645 21.2594 24.0816 22.265 24.0816C23.2706 24.0816 24.0858 23.2645 24.0858 22.2567C24.0858 21.2488 23.2706 20.4318 22.265 20.4318C21.2594 20.4318 20.4442 21.2488 20.4442 22.2567Z" fill="#807F8C"/>
<path d="M7.46993 3.7433C7.46993 5.81067 5.79773 7.48661 3.73497 7.48661C1.6722 7.48661 0 5.81067 0 3.7433C0 1.67593 1.6722 0 3.73497 0C5.46748 0 6.92448 1.18226 7.34661 2.78571C7.42707 3.09136 7.46993 3.41232 7.46993 3.7433ZM1.91416 3.7433C1.91416 4.75115 2.72936 5.56817 3.73497 5.56817C4.74057 5.56817 5.55577 4.75115 5.55577 3.7433C5.55577 2.73546 4.74057 1.91844 3.73497 1.91844C2.72936 1.91844 1.91416 2.73546 1.91416 3.7433Z" fill="#807F8C"/>
</svg>
