<svg width="18" height="19" viewBox="0 0 18 19" fill="none" xmlns="http://www.w3.org/2000/svg">
<g clip-path="url(#clip0_11_247)">
<path d="M7.44665 8.1204C7.20782 8.14005 6.98512 8.2488 6.82276 8.42506C6.66041 8.60132 6.57028 8.83219 6.57028 9.07183C6.57028 9.31146 6.66041 9.54234 6.82276 9.7186C6.98512 9.89485 7.20782 10.0036 7.44665 10.0233C7.56684 10.0189 7.68497 9.99069 7.79421 9.94038C7.90345 9.89008 8.00165 9.81864 8.08314 9.73018C8.16462 9.64172 8.22778 9.538 8.26896 9.425C8.31014 9.31201 8.32854 9.19197 8.32308 9.07183C8.32897 8.95158 8.31088 8.83136 8.26986 8.71818C8.22884 8.60499 8.1657 8.5011 8.08414 8.41255C8.00257 8.324 7.9042 8.25257 7.79475 8.20241C7.68531 8.15225 7.56698 8.12438 7.44665 8.1204ZM10.5752 8.1204C10.3837 8.10465 10.1919 8.14707 10.0249 8.24209C9.85791 8.33711 9.72347 8.48031 9.63916 8.65297C9.55486 8.82564 9.52462 9.01972 9.5524 9.20985C9.58018 9.39998 9.66468 9.5773 9.79487 9.71862C9.92505 9.85995 10.0949 9.9587 10.2821 10.002C10.4693 10.0452 10.6652 10.031 10.8442 9.96111C11.0232 9.89123 11.1769 9.76897 11.2853 9.61031C11.3937 9.45165 11.4517 9.26397 11.4517 9.07183C11.4571 8.95186 11.4388 8.83199 11.3977 8.71913C11.3567 8.60627 11.2937 8.50264 11.2125 8.41421C11.1312 8.32578 11.0333 8.25429 10.9243 8.20387C10.8153 8.15345 10.6974 8.12508 10.5774 8.1204H10.5752Z" fill="#757185"/>
<path d="M14.7428 0.928711H3.25712C3.02563 0.929273 2.79651 0.975461 2.58288 1.06463C2.36925 1.15381 2.17529 1.28422 2.0121 1.44841C1.84891 1.6126 1.71968 1.80734 1.6318 2.02151C1.54393 2.23568 1.49914 2.46507 1.49998 2.69657V14.283C1.49914 14.5145 1.54393 14.7439 1.6318 14.958C1.71968 15.1722 1.84891 15.367 2.0121 15.5312C2.17529 15.6953 2.36925 15.8258 2.58288 15.9149C2.79651 16.0041 3.02563 16.0503 3.25712 16.0509H12.9771L12.5228 14.4651L13.62 15.483L14.6571 16.443L16.5 18.0716V2.69657C16.5008 2.46507 16.456 2.23568 16.3682 2.02151C16.2803 1.80734 16.1511 1.6126 15.9879 1.44841C15.8247 1.28422 15.6307 1.15381 15.4171 1.06463C15.2034 0.975461 14.9743 0.929273 14.7428 0.928711V0.928711ZM11.4343 12.1251C11.4343 12.1251 11.1257 11.7566 10.8686 11.4287C11.4903 11.2834 12.0406 10.9229 12.4221 10.4109C12.1137 10.6161 11.783 10.7858 11.4364 10.9166C11.0377 11.0868 10.6206 11.2104 10.1936 11.2851C9.45945 11.4203 8.70659 11.4174 7.97355 11.2766C7.5432 11.1924 7.12144 11.069 6.71355 10.908C6.36912 10.7745 6.04008 10.6042 5.73212 10.4001C6.09893 10.9018 6.62951 11.2596 7.23212 11.4116C6.97498 11.7373 6.65784 12.123 6.65784 12.123C6.14867 12.1367 5.64393 12.0251 5.18805 11.7979C4.73218 11.5707 4.33914 11.2349 4.04355 10.8201C4.07071 9.08263 4.49201 7.37397 5.2757 5.823C5.96659 5.28043 6.80899 4.96593 7.68641 4.923L7.77212 5.02585C6.94733 5.22997 6.17764 5.61335 5.51784 6.14871C5.51784 6.14871 5.70641 6.04585 6.02355 5.90014C6.64035 5.61868 7.29774 5.43643 7.97141 5.36014C8.01939 5.35021 8.06815 5.34447 8.11712 5.343C8.69151 5.26816 9.2728 5.2624 9.84855 5.32585C10.754 5.42927 11.6304 5.7088 12.4286 6.14871C11.8022 5.63886 11.0747 5.26782 10.2943 5.06014L10.4143 4.923C11.2917 4.96593 12.1341 5.28043 12.825 5.823C13.6087 7.37397 14.03 9.08263 14.0571 10.8201C13.7593 11.2349 13.3647 11.5706 12.9076 11.798C12.4505 12.0255 11.9447 12.1378 11.4343 12.1251Z" fill="#757185"/>
</g>
<defs>
<clipPath id="clip0_11_247">
<rect width="17.1429" height="17.1429" fill="white" transform="translate(0.428558 0.928711)"/>
</clipPath>
</defs>
</svg>
