<svg width="16" height="17" viewBox="0 0 16 17" fill="none" xmlns="http://www.w3.org/2000/svg">
<path d="M15.5174 5.62195C15.5828 5.4513 15.6447 5.22042 15.6619 4.95273C15.686 4.48094 15.5656 3.81842 14.8807 3.21613C14.9255 2.90829 14.9255 2.41976 14.6467 1.93458C14.2785 1.29214 13.5592 0.85715 12.5061 0.639656C11.8006 0.492429 10.8749 0.462315 9.75299 0.545966C7.49198 0.502468 5.28947 0.773499 5.16558 0.790229L4.35684 0.883919C4.12282 0.723308 3.83719 0.629618 3.5309 0.629618H1.43163C0.640105 0.629618 0 1.25533 0 2.02158V7.45893C0 8.22853 0.643546 8.8509 1.43163 8.8509H3.5309C3.77868 8.8509 4.00926 8.79067 4.2123 8.68359C4.35684 8.99143 4.57021 9.34277 4.88682 9.66734C4.90403 9.68407 4.92123 9.7008 4.94188 9.71418C6.02249 10.5206 7.29582 13.425 7.74664 14.6095C7.7019 14.9775 7.65717 15.7739 8.03572 16.2055C8.20435 16.3963 8.43837 16.5 8.69992 16.5C8.96491 16.5 9.88033 16.4398 10.4516 15.6735C10.9919 14.9441 11.0229 13.8533 10.5411 12.4278C10.135 11.2299 10.0971 10.6979 10.1109 10.4838C10.2967 10.5239 10.4791 10.5607 10.6546 10.5909H10.6581C10.6891 10.5975 11.4462 10.7615 12.3513 10.8017C13.6384 10.8619 14.571 10.6444 15.1147 10.1592C15.865 9.49334 15.7755 8.64344 15.5518 8.10138C15.7445 7.85712 15.9785 7.45893 15.9992 6.95033C16.0129 6.48858 15.8546 6.04355 15.5174 5.62195ZM3.5309 7.95081H1.43163C1.15288 7.95081 0.929184 7.72997 0.929184 7.46228V2.02493C0.929184 1.7539 1.15632 1.5364 1.43163 1.5364H3.5309C3.80965 1.5364 4.03335 1.75724 4.03335 2.02493V7.46228C4.03335 7.73331 3.80965 7.95081 3.5309 7.95081ZM14.602 8.27537C14.602 8.27872 14.7224 8.46275 14.7637 8.71371C14.8153 9.02489 14.7258 9.28254 14.4849 9.49669C13.8276 10.0789 11.9349 9.94506 10.8783 9.71753C10.8646 9.71418 10.8508 9.71084 10.8336 9.70749C10.6443 9.67403 10.4413 9.63388 10.2348 9.59038C10.0145 9.51342 9.7117 9.52346 9.48456 9.72087C9.02685 10.1157 9.07847 11.0125 9.65319 12.7156C10.0317 13.8332 10.0455 14.6764 9.69449 15.1482C9.39853 15.5464 8.90984 15.5966 8.72401 15.5999C8.64141 15.4661 8.61732 15.0077 8.67927 14.6295C8.68959 14.5559 8.68271 14.479 8.65862 14.4054C8.59323 14.2347 7.08245 10.2127 5.53725 9.02155C5.1346 8.5966 4.95909 8.09803 4.89714 7.87385C4.93844 7.74335 4.96253 7.60282 4.96253 7.45893V2.02493C4.96253 1.92454 4.95221 1.82416 4.93156 1.73047L5.27914 1.69032H5.28258C5.30323 1.68697 7.5436 1.4059 9.75643 1.45275C9.7702 1.45275 9.78741 1.45275 9.80461 1.45275C10.8474 1.37244 11.6905 1.39587 12.3134 1.52636C13.0843 1.68697 13.5936 1.96804 13.8276 2.36623C14.072 2.77779 13.9378 3.20274 13.9274 3.24289C13.8552 3.43027 13.9206 3.63438 14.0857 3.75484C15.1044 4.49767 14.6364 5.3643 14.5744 5.47137C14.4609 5.64537 14.4884 5.86621 14.6364 6.01678C14.9323 6.31793 15.0769 6.61907 15.0665 6.91353C15.0528 7.35186 14.7052 7.67977 14.6811 7.69985C14.509 7.84373 14.4781 8.08799 14.602 8.27537Z" fill="white"/>
</svg>
