<svg width="18" height="19" viewBox="0 0 18 19" fill="none" xmlns="http://www.w3.org/2000/svg">
<g clip-path="url(#clip0_11_256)">
<path d="M8.99976 12.2147C10.4988 12.2147 11.714 10.9995 11.714 9.50042C11.714 8.00136 10.4988 6.78613 8.99976 6.78613C7.5007 6.78613 6.28548 8.00136 6.28548 9.50042C6.28548 10.9995 7.5007 12.2147 8.99976 12.2147Z" fill="#757185"/>
<path d="M12.3918 1.35742H5.60612C2.98751 1.35742 0.856796 3.48882 0.856796 6.1081V12.8938C0.856796 15.5124 2.98819 17.6431 5.60747 17.6431H12.3932C15.0118 17.6431 17.1425 15.5117 17.1425 12.8925V6.10674C17.1425 3.48814 15.0111 1.35742 12.3918 1.35742ZM8.99965 13.5717C6.75426 13.5717 4.92822 11.7457 4.92822 9.50028C4.92822 7.25489 6.75426 5.42885 8.99965 5.42885C11.245 5.42885 13.0711 7.25489 13.0711 9.50028C13.0711 11.7457 11.245 13.5717 8.99965 13.5717ZM13.7497 5.42885C13.3751 5.42885 13.0711 5.12485 13.0711 4.75028C13.0711 4.37571 13.3751 4.07171 13.7497 4.07171C14.1242 4.07171 14.4282 4.37571 14.4282 4.75028C14.4282 5.12485 14.1242 5.42885 13.7497 5.42885Z" fill="#757185"/>
</g>
<defs>
<clipPath id="clip0_11_256">
<rect width="17.1429" height="17.1429" fill="white" transform="translate(0.428574 0.928711)"/>
</clipPath>
</defs>
</svg>
