<svg width="1920" height="324" viewBox="0 0 1920 324" fill="none" xmlns="http://www.w3.org/2000/svg">
<rect x="0.5" y="0.5" width="46.5" height="59" rx="9.5" fill="#0D1510"/>
<rect x="0.5" y="0.5" width="46.5" height="59" rx="9.5" stroke="#1E3A2F"/>
<rect x="54" y="0.5" width="46.5" height="59" rx="9.5" fill="#0D1510"/>
<rect x="54" y="0.5" width="46.5" height="59" rx="9.5" stroke="#1E3A2F"/>
<rect x="107.5" y="0.5" width="46.5" height="59" rx="9.5" fill="#0D1510"/>
<rect x="107.5" y="0.5" width="46.5" height="59" rx="9.5" stroke="#1E3A2F"/>
<rect x="161" y="0.5" width="46.5" height="59" rx="9.5" fill="#0D1510"/>
<rect x="161" y="0.5" width="46.5" height="59" rx="9.5" stroke="#1E3A2F"/>
<rect x="214.5" y="0.5" width="46.5" height="59" rx="9.5" fill="#0D1510"/>
<rect x="214.5" y="0.5" width="46.5" height="59" rx="9.5" stroke="#1E3A2F"/>
<rect x="268" y="0.5" width="46.5" height="59" rx="9.5" fill="#0D1510"/>
<rect x="268" y="0.5" width="46.5" height="59" rx="9.5" stroke="#1E3A2F"/>
<rect x="321.5" y="0.5" width="46.5" height="59" rx="9.5" fill="#0D1510"/>
<rect x="321.5" y="0.5" width="46.5" height="59" rx="9.5" stroke="#1E3A2F"/>
<rect x="375" y="0.5" width="46.5" height="59" rx="9.5" fill="#0D1510"/>
<rect x="375" y="0.5" width="46.5" height="59" rx="9.5" stroke="#1E3A2F"/>
<rect x="428.5" y="0.5" width="46.5" height="59" rx="9.5" fill="#0D1510"/>
<rect x="428.5" y="0.5" width="46.5" height="59" rx="9.5" stroke="#1E3A2F"/>
<rect x="482" y="0.5" width="46.5" height="59" rx="9.5" fill="#0D1510"/>
<rect x="482" y="0.5" width="46.5" height="59" rx="9.5" stroke="#1E3A2F"/>
<rect x="535.5" y="0.5" width="46.5" height="59" rx="9.5" fill="#0D1510"/>
<rect x="535.5" y="0.5" width="46.5" height="59" rx="9.5" stroke="#1E3A2F"/>
<rect x="589" y="0.5" width="46.5" height="59" rx="9.5" fill="#0D1510"/>
<rect x="589" y="0.5" width="46.5" height="59" rx="9.5" stroke="#1E3A2F"/>
<rect x="642.5" y="0.5" width="46.5" height="59" rx="9.5" fill="#0D1510"/>
<rect x="642.5" y="0.5" width="46.5" height="59" rx="9.5" stroke="#1E3A2F"/>
<rect x="696" y="0.5" width="46.5" height="59" rx="9.5" fill="#0D1510"/>
<rect x="696" y="0.5" width="46.5" height="59" rx="9.5" stroke="#1E3A2F"/>
<rect x="749.5" y="0.5" width="46.5" height="59" rx="9.5" fill="#0D1510"/>
<rect x="749.5" y="0.5" width="46.5" height="59" rx="9.5" stroke="#1E3A2F"/>
<rect x="803" y="0.5" width="46.5" height="59" rx="9.5" fill="#0D1510"/>
<rect x="803" y="0.5" width="46.5" height="59" rx="9.5" stroke="#1E3A2F"/>
<rect x="856.5" y="0.5" width="46.5" height="59" rx="9.5" fill="#0D1510"/>
<rect x="856.5" y="0.5" width="46.5" height="59" rx="9.5" stroke="#1E3A2F"/>
<rect x="910" y="0.5" width="46.5" height="59" rx="9.5" fill="#0D1510"/>
<rect x="910" y="0.5" width="46.5" height="59" rx="9.5" stroke="#1E3A2F"/>
<rect x="963.5" y="0.5" width="46.5" height="59" rx="9.5" fill="#0D1510"/>
<rect x="963.5" y="0.5" width="46.5" height="59" rx="9.5" stroke="#1E3A2F"/>
<rect x="1017" y="0.5" width="46.5" height="59" rx="9.5" fill="#0D1510"/>
<rect x="1017" y="0.5" width="46.5" height="59" rx="9.5" stroke="#1E3A2F"/>
<rect x="1070.5" y="0.5" width="46.5" height="59" rx="9.5" fill="#0D1510"/>
<rect x="1070.5" y="0.5" width="46.5" height="59" rx="9.5" stroke="#1E3A2F"/>
<rect x="1124" y="0.5" width="46.5" height="59" rx="9.5" fill="#0D1510"/>
<rect x="1124" y="0.5" width="46.5" height="59" rx="9.5" stroke="#1E3A2F"/>
<rect x="1177.5" y="0.5" width="46.5" height="59" rx="9.5" fill="#0D1510"/>
<rect x="1177.5" y="0.5" width="46.5" height="59" rx="9.5" stroke="#1E3A2F"/>
<rect x="1231" y="0.5" width="46.5" height="59" rx="9.5" fill="#0D1510"/>
<rect x="1231" y="0.5" width="46.5" height="59" rx="9.5" stroke="#1E3A2F"/>
<rect x="1284.5" y="0.5" width="46.5" height="59" rx="9.5" fill="#0D1510"/>
<rect x="1284.5" y="0.5" width="46.5" height="59" rx="9.5" stroke="#1E3A2F"/>
<rect x="1338" y="0.5" width="46.5" height="59" rx="9.5" fill="#0D1510"/>
<rect x="1338" y="0.5" width="46.5" height="59" rx="9.5" stroke="#1E3A2F"/>
<rect x="1391.5" y="0.5" width="46.5" height="59" rx="9.5" fill="#0D1510"/>
<rect x="1391.5" y="0.5" width="46.5" height="59" rx="9.5" stroke="#1E3A2F"/>
<rect x="1445" y="0.5" width="46.5" height="59" rx="9.5" fill="#0D1510"/>
<rect x="1445" y="0.5" width="46.5" height="59" rx="9.5" stroke="#1E3A2F"/>
<rect x="1498.5" y="0.5" width="46.5" height="59" rx="9.5" fill="#0D1510"/>
<rect x="1498.5" y="0.5" width="46.5" height="59" rx="9.5" stroke="#1E3A2F"/>
<rect x="1552" y="0.5" width="46.5" height="59" rx="9.5" fill="#0D1510"/>
<rect x="1552" y="0.5" width="46.5" height="59" rx="9.5" stroke="#1E3A2F"/>
<rect x="1605.5" y="0.5" width="46.5" height="59" rx="9.5" fill="#0D1510"/>
<rect x="1605.5" y="0.5" width="46.5" height="59" rx="9.5" stroke="#1E3A2F"/>
<rect x="1659" y="0.5" width="46.5" height="59" rx="9.5" fill="#0D1510"/>
<rect x="1659" y="0.5" width="46.5" height="59" rx="9.5" stroke="#1E3A2F"/>
<rect x="1712.5" y="0.5" width="46.5" height="59" rx="9.5" fill="#0D1510"/>
<rect x="1712.5" y="0.5" width="46.5" height="59" rx="9.5" stroke="#1E3A2F"/>
<rect x="1766" y="0.5" width="46.5" height="59" rx="9.5" fill="#0D1510"/>
<rect x="1766" y="0.5" width="46.5" height="59" rx="9.5" stroke="#1E3A2F"/>
<rect x="1819.5" y="0.5" width="46.5" height="59" rx="9.5" fill="#0D1510"/>
<rect x="1819.5" y="0.5" width="46.5" height="59" rx="9.5" stroke="#1E3A2F"/>
<rect x="1873" y="0.5" width="46.5" height="59" rx="9.5" fill="#0D1510"/>
<rect x="1873" y="0.5" width="46.5" height="59" rx="9.5" stroke="#1E3A2F"/>
<rect x="0.5" y="66.5" width="46.5" height="59" rx="9.5" fill="#0D1510"/>
<rect x="0.5" y="66.5" width="46.5" height="59" rx="9.5" stroke="#1E3A2F"/>
<rect x="54" y="66.5" width="46.5" height="59" rx="9.5" fill="#0D1510"/>
<rect x="54" y="66.5" width="46.5" height="59" rx="9.5" stroke="#1E3A2F"/>
<rect x="107.5" y="66.5" width="46.5" height="59" rx="9.5" fill="#0D1510"/>
<rect x="107.5" y="66.5" width="46.5" height="59" rx="9.5" stroke="#1E3A2F"/>
<rect x="161" y="66.5" width="46.5" height="59" rx="9.5" fill="#0D1510"/>
<rect x="161" y="66.5" width="46.5" height="59" rx="9.5" stroke="#1E3A2F"/>
<rect x="214.5" y="66.5" width="46.5" height="59" rx="9.5" fill="#0D1510"/>
<rect x="214.5" y="66.5" width="46.5" height="59" rx="9.5" stroke="#1E3A2F"/>
<rect x="268" y="66.5" width="46.5" height="59" rx="9.5" fill="#0D1510"/>
<rect x="268" y="66.5" width="46.5" height="59" rx="9.5" stroke="#1E3A2F"/>
<rect x="321.5" y="66.5" width="46.5" height="59" rx="9.5" fill="#0D1510"/>
<rect x="321.5" y="66.5" width="46.5" height="59" rx="9.5" stroke="#1E3A2F"/>
<path d="M338.45 106V84.1H342.62V106H338.45ZM342.02 106V102.4H351.95V106H342.02ZM342.02 96.67V93.07H351.17V96.67H342.02ZM342.02 87.7V84.1H351.71V87.7H342.02Z" fill="white"/>
<rect x="375" y="66.5" width="46.5" height="59" rx="9.5" fill="#0D1510"/>
<rect x="375" y="66.5" width="46.5" height="59" rx="9.5" stroke="#1E3A2F"/>
<path d="M389.95 106V83.95H394.21V106H389.95ZM403.33 106L396.61 96.46H401.38L408.31 106H403.33ZM392.95 98.68V95.23H398.53C399.31 95.23 399.98 95.07 400.54 94.75C401.12 94.43 401.57 93.98 401.89 93.4C402.21 92.82 402.37 92.16 402.37 91.42C402.37 90.66 402.21 89.99 401.89 89.41C401.57 88.83 401.12 88.38 400.54 88.06C399.98 87.74 399.31 87.58 398.53 87.58H392.95V83.95H398.08C399.84 83.95 401.36 84.21 402.64 84.73C403.94 85.25 404.94 86.04 405.64 87.1C406.34 88.16 406.69 89.49 406.69 91.09V91.57C406.69 93.19 406.33 94.52 405.61 95.56C404.91 96.6 403.92 97.38 402.64 97.9C401.36 98.42 399.84 98.68 398.08 98.68H392.95Z" fill="white"/>
<rect x="428.5" y="66.5" width="46.5" height="59" rx="9.5" fill="#0D1510"/>
<rect x="428.5" y="66.5" width="46.5" height="59" rx="9.5" stroke="#1E3A2F"/>
<path d="M451.42 106.57C449.48 106.57 447.84 106.26 446.5 105.64C445.18 105.02 444.17 104.17 443.47 103.09C442.77 101.99 442.42 100.75 442.42 99.37H446.59C446.59 99.95 446.75 100.52 447.07 101.08C447.39 101.62 447.9 102.06 448.6 102.4C449.32 102.74 450.26 102.91 451.42 102.91C452.46 102.91 453.33 102.76 454.03 102.46C454.73 102.16 455.25 101.77 455.59 101.29C455.93 100.79 456.1 100.23 456.1 99.61C456.1 98.83 455.77 98.21 455.11 97.75C454.45 97.27 453.43 96.97 452.05 96.85L450.13 96.7C448.03 96.52 446.35 95.87 445.09 94.75C443.85 93.61 443.23 92.11 443.23 90.25C443.23 88.85 443.56 87.65 444.22 86.65C444.88 85.63 445.8 84.85 446.98 84.31C448.18 83.75 449.58 83.47 451.18 83.47C452.84 83.47 454.27 83.76 455.47 84.34C456.67 84.92 457.6 85.74 458.26 86.8C458.92 87.84 459.25 89.07 459.25 90.49H455.08C455.08 89.89 454.93 89.34 454.63 88.84C454.35 88.32 453.92 87.91 453.34 87.61C452.78 87.29 452.06 87.13 451.18 87.13C450.34 87.13 449.64 87.27 449.08 87.55C448.52 87.83 448.1 88.21 447.82 88.69C447.54 89.17 447.4 89.69 447.4 90.25C447.4 90.93 447.65 91.53 448.15 92.05C448.65 92.55 449.44 92.84 450.52 92.92L452.44 93.1C454 93.22 455.37 93.55 456.55 94.09C457.73 94.63 458.64 95.36 459.28 96.28C459.94 97.2 460.27 98.31 460.27 99.61C460.27 100.99 459.91 102.21 459.19 103.27C458.47 104.31 457.44 105.12 456.1 105.7C454.78 106.28 453.22 106.57 451.42 106.57Z" fill="white"/>
<rect x="482" y="66.5" width="46.5" height="59" rx="9.5" fill="#0D1510"/>
<rect x="482" y="66.5" width="46.5" height="59" rx="9.5" stroke="#1E3A2F"/>
<path d="M501.686 99.228V95.784H505.662C506.465 95.784 507.137 95.6253 507.678 95.308C508.238 94.9907 508.658 94.552 508.938 93.992C509.237 93.432 509.386 92.788 509.386 92.06C509.386 91.332 509.237 90.688 508.938 90.128C508.658 89.568 508.238 89.1387 507.678 88.84C507.137 88.5227 506.465 88.364 505.662 88.364H501.686V84.92H505.326C507.043 84.92 508.499 85.2 509.694 85.76C510.907 86.32 511.831 87.1227 512.466 88.168C513.101 89.1947 513.418 90.4173 513.418 91.836V92.284C513.418 93.7027 513.101 94.9347 512.466 95.98C511.831 97.0067 510.907 97.8093 509.694 98.388C508.499 98.948 507.043 99.228 505.326 99.228H501.686ZM498.27 105.5V84.92H502.246V105.5H498.27Z" fill="white"/>
<rect x="535.5" y="66.5" width="46.5" height="59" rx="9.5" fill="#0D1510"/>
<rect x="535.5" y="66.5" width="46.5" height="59" rx="9.5" stroke="#1E3A2F"/>
<path d="M547.29 106L554.76 84.1H561.72L569.4 106H565.02L558.51 87.01L560.04 87.67H556.29L557.85 87.01L551.55 106H547.29ZM552.51 100.18L553.86 96.58H562.74L564.06 100.18H552.51Z" fill="white"/>
<rect x="589" y="66.5" width="46.5" height="59" rx="9.5" fill="#0D1510"/>
<rect x="589" y="66.5" width="46.5" height="59" rx="9.5" stroke="#1E3A2F"/>
<path d="M603.95 106V83.95H608.21V106H603.95ZM617.33 106L610.61 96.46H615.38L622.31 106H617.33ZM606.95 98.68V95.23H612.53C613.31 95.23 613.98 95.07 614.54 94.75C615.12 94.43 615.57 93.98 615.89 93.4C616.21 92.82 616.37 92.16 616.37 91.42C616.37 90.66 616.21 89.99 615.89 89.41C615.57 88.83 615.12 88.38 614.54 88.06C613.98 87.74 613.31 87.58 612.53 87.58H606.95V83.95H612.08C613.84 83.95 615.36 84.21 616.64 84.73C617.94 85.25 618.94 86.04 619.64 87.1C620.34 88.16 620.69 89.49 620.69 91.09V91.57C620.69 93.19 620.33 94.52 619.61 95.56C618.91 96.6 617.92 97.38 616.64 97.9C615.36 98.42 613.84 98.68 612.08 98.68H606.95Z" fill="white"/>
<rect x="642.5" y="66.5" width="46.5" height="59" rx="9.5" fill="#0D1510"/>
<rect x="642.5" y="66.5" width="46.5" height="59" rx="9.5" stroke="#1E3A2F"/>
<path d="M663.27 106V87.25H667.53V106H663.27ZM656.94 87.85V84.1H673.86V87.85H656.94Z" fill="white"/>
<rect x="696" y="66.5" width="46.5" height="59" rx="9.5" fill="#0D1510"/>
<rect x="696" y="66.5" width="46.5" height="59" rx="9.5" stroke="#1E3A2F"/>
<rect x="749.5" y="66.5" width="46.5" height="59" rx="9.5" fill="#0D1510"/>
<rect x="749.5" y="66.5" width="46.5" height="59" rx="9.5" stroke="#1E3A2F"/>
<rect x="803" y="66.5" width="46.5" height="59" rx="9.5" fill="#0D1510"/>
<rect x="803" y="66.5" width="46.5" height="59" rx="9.5" stroke="#1E3A2F"/>
<rect x="856.5" y="66.5" width="46.5" height="59" rx="9.5" fill="#0D1510"/>
<rect x="856.5" y="66.5" width="46.5" height="59" rx="9.5" stroke="#1E3A2F"/>
<rect x="910" y="66.5" width="46.5" height="59" rx="9.5" fill="#0D1510"/>
<rect x="910" y="66.5" width="46.5" height="59" rx="9.5" stroke="#1E3A2F"/>
<rect x="963.5" y="66.5" width="46.5" height="59" rx="9.5" fill="#0D1510"/>
<rect x="963.5" y="66.5" width="46.5" height="59" rx="9.5" stroke="#1E3A2F"/>
<rect x="1017" y="66.5" width="46.5" height="59" rx="9.5" fill="#0D1510"/>
<rect x="1017" y="66.5" width="46.5" height="59" rx="9.5" stroke="#1E3A2F"/>
<rect x="1070.5" y="66.5" width="46.5" height="59" rx="9.5" fill="#0D1510"/>
<rect x="1070.5" y="66.5" width="46.5" height="59" rx="9.5" stroke="#1E3A2F"/>
<path d="M1092.8 106V86.74L1094.12 87.76H1088.33V84.1H1097.03V106H1092.8Z" fill="white"/>
<rect x="1124" y="66.5" width="46.5" height="59" rx="9.5" fill="#0D1510"/>
<rect x="1124" y="66.5" width="46.5" height="59" rx="9.5" stroke="#1E3A2F"/>
<path d="M1144.46 106V101.2H1149.14V106H1144.46Z" fill="white"/>
<rect x="1177.5" y="66.5" width="46.5" height="59" rx="9.5" fill="#0D1510"/>
<rect x="1177.5" y="66.5" width="46.5" height="59" rx="9.5" stroke="#1E3A2F"/>
<path d="M1200.44 106.57C1198.72 106.57 1197.24 106.23 1196 105.55C1194.78 104.87 1193.84 103.97 1193.18 102.85C1192.54 101.71 1192.22 100.47 1192.22 99.13H1196.33C1196.33 99.89 1196.5 100.56 1196.84 101.14C1197.2 101.72 1197.69 102.18 1198.31 102.52C1198.93 102.84 1199.65 103 1200.47 103C1201.33 103 1202.07 102.82 1202.69 102.46C1203.31 102.1 1203.78 101.61 1204.1 100.99C1204.44 100.37 1204.61 99.66 1204.61 98.86C1204.61 98.08 1204.44 97.38 1204.1 96.76C1203.78 96.12 1203.31 95.62 1202.69 95.26C1202.09 94.88 1201.36 94.69 1200.5 94.69C1199.78 94.69 1199.1 94.83 1198.46 95.11C1197.82 95.39 1197.32 95.76 1196.96 96.22H1193.03L1194.14 84.1H1206.83V87.73H1196L1197.5 86.56L1196.78 94.12L1195.76 93.82C1196.34 93.16 1197.05 92.61 1197.89 92.17C1198.73 91.73 1199.79 91.51 1201.07 91.51C1202.69 91.51 1204.07 91.84 1205.21 92.5C1206.35 93.16 1207.22 94.04 1207.82 95.14C1208.42 96.22 1208.72 97.4 1208.72 98.68V99.07C1208.72 100.37 1208.4 101.59 1207.76 102.73C1207.12 103.87 1206.18 104.8 1204.94 105.52C1203.72 106.22 1202.22 106.57 1200.44 106.57Z" fill="white"/>
<rect x="1231" y="66.5" width="46.5" height="59" rx="9.5" fill="#0D1510"/>
<rect x="1231" y="66.5" width="46.5" height="59" rx="9.5" stroke="#1E3A2F"/>
<path d="M1253.94 106.57C1252.22 106.57 1250.74 106.23 1249.5 105.55C1248.28 104.87 1247.34 103.97 1246.68 102.85C1246.04 101.71 1245.72 100.47 1245.72 99.13H1249.83C1249.83 99.89 1250 100.56 1250.34 101.14C1250.7 101.72 1251.19 102.18 1251.81 102.52C1252.43 102.84 1253.15 103 1253.97 103C1254.83 103 1255.57 102.82 1256.19 102.46C1256.81 102.1 1257.28 101.61 1257.6 100.99C1257.94 100.37 1258.11 99.66 1258.11 98.86C1258.11 98.08 1257.94 97.38 1257.6 96.76C1257.28 96.12 1256.81 95.62 1256.19 95.26C1255.59 94.88 1254.86 94.69 1254 94.69C1253.28 94.69 1252.6 94.83 1251.96 95.11C1251.32 95.39 1250.82 95.76 1250.46 96.22H1246.53L1247.64 84.1H1260.33V87.73H1249.5L1251 86.56L1250.28 94.12L1249.26 93.82C1249.84 93.16 1250.55 92.61 1251.39 92.17C1252.23 91.73 1253.29 91.51 1254.57 91.51C1256.19 91.51 1257.57 91.84 1258.71 92.5C1259.85 93.16 1260.72 94.04 1261.32 95.14C1261.92 96.22 1262.22 97.4 1262.22 98.68V99.07C1262.22 100.37 1261.9 101.59 1261.26 102.73C1260.62 103.87 1259.68 104.8 1258.44 105.52C1257.22 106.22 1255.72 106.57 1253.94 106.57Z" fill="white"/>
<rect x="1284.5" y="66.5" width="46.5" height="59" rx="9.5" fill="#0D1510"/>
<rect x="1284.5" y="66.5" width="46.5" height="59" rx="9.5" stroke="#1E3A2F"/>
<path d="M1300.2 106V101.8C1300.2 100.88 1300.34 100.08 1300.62 99.4C1300.92 98.72 1301.4 98.12 1302.06 97.6C1302.74 97.06 1303.63 96.55 1304.73 96.07L1308.45 94.42C1309.37 94 1310.07 93.49 1310.55 92.89C1311.05 92.27 1311.3 91.48 1311.3 90.52C1311.3 89.46 1310.98 88.62 1310.34 88C1309.72 87.36 1308.83 87.04 1307.67 87.04C1306.51 87.04 1305.61 87.36 1304.97 88C1304.35 88.64 1304.04 89.53 1304.04 90.67H1299.93C1299.93 89.31 1300.22 88.09 1300.8 87.01C1301.38 85.91 1302.24 85.05 1303.38 84.43C1304.52 83.79 1305.95 83.47 1307.67 83.47C1309.39 83.47 1310.82 83.78 1311.96 84.4C1313.1 85.02 1313.96 85.85 1314.54 86.89C1315.12 87.91 1315.41 89.05 1315.41 90.31V90.7C1315.41 92.34 1314.95 93.71 1314.03 94.81C1313.11 95.89 1311.76 96.83 1309.98 97.63L1306.26 99.28C1305.56 99.58 1305.07 99.9 1304.79 100.24C1304.51 100.56 1304.37 101 1304.37 101.56V103.48L1303.35 102.37H1315.5V106H1300.2Z" fill="white"/>
<rect x="1338" y="66.5" width="46.5" height="59" rx="9.5" fill="#0D1510"/>
<rect x="1338" y="66.5" width="46.5" height="59" rx="9.5" stroke="#1E3A2F"/>
<path d="M1358.46 106V101.2H1363.14V106H1358.46Z" fill="white"/>
<rect x="1391.5" y="66.5" width="46.5" height="59" rx="9.5" fill="#0D1510"/>
<rect x="1391.5" y="66.5" width="46.5" height="59" rx="9.5" stroke="#1E3A2F"/>
<path d="M1414.43 106.57C1412.75 106.57 1411.3 106.25 1410.08 105.61C1408.88 104.97 1407.96 104.12 1407.32 103.06C1406.68 101.98 1406.36 100.78 1406.36 99.46H1410.47C1410.47 100.52 1410.82 101.38 1411.52 102.04C1412.24 102.68 1413.21 103 1414.43 103C1415.25 103 1415.95 102.85 1416.53 102.55C1417.13 102.23 1417.59 101.8 1417.91 101.26C1418.23 100.7 1418.39 100.06 1418.39 99.34C1418.39 98.26 1418.04 97.38 1417.34 96.7C1416.64 96 1415.68 95.65 1414.46 95.65C1413.86 95.65 1413.33 95.73 1412.87 95.89C1412.43 96.05 1412.04 96.26 1411.7 96.52L1409.75 93.16L1416.95 88.24L1416.68 87.73H1407.26V84.1H1421.57V88.48L1414.16 93.4L1411.85 92.98C1412.23 92.86 1412.64 92.77 1413.08 92.71C1413.52 92.63 1414 92.59 1414.52 92.59C1416.18 92.59 1417.6 92.88 1418.78 93.46C1419.98 94.02 1420.9 94.8 1421.54 95.8C1422.18 96.8 1422.5 97.95 1422.5 99.25V99.64C1422.5 100.9 1422.18 102.06 1421.54 103.12C1420.9 104.16 1419.98 105 1418.78 105.64C1417.58 106.26 1416.13 106.57 1414.43 106.57Z" fill="white"/>
<rect x="1445" y="66.5" width="46.5" height="59" rx="9.5" fill="#0D1510"/>
<rect x="1445" y="66.5" width="46.5" height="59" rx="9.5" stroke="#1E3A2F"/>
<path d="M1463.57 106L1471.76 88L1471.49 87.61H1460.39V84.1H1476.35V87.34L1468.04 106H1463.57ZM1460.39 91.12V84.1H1463.84V91.12H1460.39Z" fill="white"/>
<rect x="1498.5" y="66.5" width="46.5" height="59" rx="9.5" fill="#0D1510"/>
<rect x="1498.5" y="66.5" width="46.5" height="59" rx="9.5" stroke="#1E3A2F"/>
<path d="M1512.89 101.47V96.85L1521.47 83.5L1524.68 85.69L1517.12 97.51L1517.48 98.11H1530.92V101.47H1512.89ZM1524.35 106V90.31H1528.28V106H1524.35Z" fill="white"/>
<rect x="1552" y="66.5" width="46.5" height="59" rx="9.5" fill="#0D1510"/>
<rect x="1552" y="66.5" width="46.5" height="59" rx="9.5" stroke="#1E3A2F"/>
<path d="M1576.31 106.48C1573.31 106.48 1571.02 105.54 1569.44 103.66C1567.86 101.78 1567.07 98.98 1567.07 95.26V94.84C1567.07 91.1 1567.83 88.3 1569.35 86.44C1570.89 84.56 1573.15 83.62 1576.13 83.62C1577.95 83.62 1579.45 83.92 1580.63 84.52C1581.83 85.12 1582.73 85.96 1583.33 87.04C1583.95 88.1 1584.29 89.32 1584.35 90.7H1580.66C1580.58 89.58 1580.17 88.69 1579.43 88.03C1578.69 87.37 1577.59 87.04 1576.13 87.04C1574.31 87.04 1572.96 87.66 1572.08 88.9C1571.22 90.12 1570.79 92.17 1570.79 95.05C1570.79 97.93 1571.25 99.99 1572.17 101.23C1573.09 102.45 1574.47 103.06 1576.31 103.06C1577.81 103.06 1578.92 102.73 1579.64 102.07C1580.36 101.41 1580.76 100.51 1580.84 99.37H1584.53C1584.47 100.77 1584.14 102.01 1583.54 103.09C1582.94 104.15 1582.04 104.98 1580.84 105.58C1579.64 106.18 1578.13 106.48 1576.31 106.48ZM1564.67 98.71V96.43H1577.81V98.71H1564.67ZM1565.21 94.15V91.87H1578.35V94.15H1565.21Z" fill="white"/>
<rect x="1605.5" y="66.5" width="46.5" height="59" rx="9.5" fill="#0D1510"/>
<rect x="1605.5" y="66.5" width="46.5" height="59" rx="9.5" stroke="#1E3A2F"/>
<rect x="1659" y="66.5" width="46.5" height="59" rx="9.5" fill="#0D1510"/>
<rect x="1659" y="66.5" width="46.5" height="59" rx="9.5" stroke="#1E3A2F"/>
<rect x="1712.5" y="66.5" width="46.5" height="59" rx="9.5" fill="#0D1510"/>
<rect x="1712.5" y="66.5" width="46.5" height="59" rx="9.5" stroke="#1E3A2F"/>
<rect x="1766" y="66.5" width="46.5" height="59" rx="9.5" fill="#0D1510"/>
<rect x="1766" y="66.5" width="46.5" height="59" rx="9.5" stroke="#1E3A2F"/>
<rect x="1819.5" y="66.5" width="46.5" height="59" rx="9.5" fill="#0D1510"/>
<rect x="1819.5" y="66.5" width="46.5" height="59" rx="9.5" stroke="#1E3A2F"/>
<rect x="1873" y="66.5" width="46.5" height="59" rx="9.5" fill="#0D1510"/>
<rect x="1873" y="66.5" width="46.5" height="59" rx="9.5" stroke="#1E3A2F"/>
<rect x="0.5" y="132.5" width="46.5" height="59" rx="9.5" fill="#0D1510"/>
<rect x="0.5" y="132.5" width="46.5" height="59" rx="9.5" stroke="#1E3A2F"/>
<rect x="54" y="132.5" width="46.5" height="59" rx="9.5" fill="#0D1510"/>
<rect x="54" y="132.5" width="46.5" height="59" rx="9.5" stroke="#1E3A2F"/>
<rect x="107.5" y="132.5" width="46.5" height="59" rx="9.5" fill="#0D1510"/>
<rect x="107.5" y="132.5" width="46.5" height="59" rx="9.5" stroke="#1E3A2F"/>
<rect x="161" y="132.5" width="46.5" height="59" rx="9.5" fill="#0D1510"/>
<rect x="161" y="132.5" width="46.5" height="59" rx="9.5" stroke="#1E3A2F"/>
<rect x="214.5" y="132.5" width="46.5" height="59" rx="9.5" fill="#0D1510"/>
<rect x="214.5" y="132.5" width="46.5" height="59" rx="9.5" stroke="#1E3A2F"/>
<rect x="268" y="132.5" width="46.5" height="59" rx="9.5" fill="#0D1510"/>
<rect x="268" y="132.5" width="46.5" height="59" rx="9.5" stroke="#1E3A2F"/>
<rect x="321.5" y="132.5" width="46.5" height="59" rx="9.5" fill="#0D1510"/>
<rect x="321.5" y="132.5" width="46.5" height="59" rx="9.5" stroke="#1E3A2F"/>
<path d="M335.05 172L329.47 150.1H333.88L338.41 169.15L337.24 168.46H340.24L338.92 169.15L342.49 150.94H346.15L341.71 172H335.05ZM348.13 172L343.3 150.94H347.11L351.22 169.15L349.93 168.46H352.87L351.73 169.15L355.72 150.1H359.89L354.91 172H348.13Z" fill="white"/>
<rect x="375" y="132.5" width="46.5" height="59" rx="9.5" fill="#0D1510"/>
<rect x="375" y="132.5" width="46.5" height="59" rx="9.5" stroke="#1E3A2F"/>
<path d="M398.24 172.57C396.26 172.57 394.54 172.22 393.08 171.52C391.64 170.82 390.44 169.91 389.48 168.79C388.54 167.65 387.83 166.43 387.35 165.13C386.89 163.81 386.66 162.54 386.66 161.32V160.66C386.66 159.32 386.9 157.99 387.38 156.67C387.86 155.33 388.58 154.12 389.54 153.04C390.52 151.96 391.73 151.1 393.17 150.46C394.61 149.8 396.3 149.47 398.24 149.47C400.16 149.47 401.84 149.8 403.28 150.46C404.72 151.1 405.92 151.96 406.88 153.04C407.86 154.12 408.59 155.33 409.07 156.67C409.55 157.99 409.79 159.32 409.79 160.66V161.32C409.79 162.54 409.55 163.81 409.07 165.13C408.61 166.43 407.9 167.65 406.94 168.79C406 169.91 404.8 170.82 403.34 171.52C401.9 172.22 400.2 172.57 398.24 172.57ZM398.24 168.61C399.36 168.61 400.36 168.41 401.24 168.01C402.14 167.61 402.9 167.06 403.52 166.36C404.16 165.64 404.64 164.83 404.96 163.93C405.3 163.01 405.47 162.04 405.47 161.02C405.47 159.92 405.3 158.91 404.96 157.99C404.64 157.07 404.16 156.27 403.52 155.59C402.9 154.91 402.14 154.38 401.24 154C400.34 153.62 399.34 153.43 398.24 153.43C397.12 153.43 396.11 153.62 395.21 154C394.31 154.38 393.54 154.91 392.9 155.59C392.28 156.27 391.8 157.07 391.46 157.99C391.14 158.91 390.98 159.92 390.98 161.02C390.98 162.04 391.14 163.01 391.46 163.93C391.8 164.83 392.28 165.64 392.9 166.36C393.54 167.06 394.31 167.61 395.21 168.01C396.11 168.41 397.12 168.61 398.24 168.61Z" fill="white"/>
<rect x="428.5" y="132.5" width="46.5" height="59" rx="9.5" fill="#0D1510"/>
<rect x="428.5" y="132.5" width="46.5" height="59" rx="9.5" stroke="#1E3A2F"/>
<path d="M443.45 172V149.95H447.71V172H443.45ZM456.83 172L450.11 162.46H454.88L461.81 172H456.83ZM446.45 164.68V161.23H452.03C452.81 161.23 453.48 161.07 454.04 160.75C454.62 160.43 455.07 159.98 455.39 159.4C455.71 158.82 455.87 158.16 455.87 157.42C455.87 156.66 455.71 155.99 455.39 155.41C455.07 154.83 454.62 154.38 454.04 154.06C453.48 153.74 452.81 153.58 452.03 153.58H446.45V149.95H451.58C453.34 149.95 454.86 150.21 456.14 150.73C457.44 151.25 458.44 152.04 459.14 153.1C459.84 154.16 460.19 155.49 460.19 157.09V157.57C460.19 159.19 459.83 160.52 459.11 161.56C458.41 162.6 457.42 163.38 456.14 163.9C454.86 164.42 453.34 164.68 451.58 164.68H446.45Z" fill="white"/>
<rect x="482" y="132.5" width="46.5" height="59" rx="9.5" fill="#0D1510"/>
<rect x="482" y="132.5" width="46.5" height="59" rx="9.5" stroke="#1E3A2F"/>
<path d="M511.14 172L503.13 161.77H500.04L509.55 150.1H514.44L505.86 160.6L505.74 158.5L516.33 172H511.14ZM496.95 172V150.1H501.21V172H496.95Z" fill="white"/>
<rect x="535.5" y="132.5" width="46.5" height="59" rx="9.5" fill="#0D1510"/>
<rect x="535.5" y="132.5" width="46.5" height="59" rx="9.5" stroke="#1E3A2F"/>
<path d="M552.95 172V150.1H557.21V172H552.95ZM556.61 162.88V159.28L565.37 159.25V162.85L556.61 162.88ZM556.61 153.7V150.1H565.79V153.7H556.61Z" fill="white"/>
<rect x="589" y="132.5" width="46.5" height="59" rx="9.5" fill="#0D1510"/>
<rect x="589" y="132.5" width="46.5" height="59" rx="9.5" stroke="#1E3A2F"/>
<path d="M606.45 172V150.1H610.71V172H606.45ZM610.11 172V168.25H619.56V172H610.11Z" fill="white"/>
<rect x="642.5" y="132.5" width="46.5" height="59" rx="9.5" fill="#0D1510"/>
<rect x="642.5" y="132.5" width="46.5" height="59" rx="9.5" stroke="#1E3A2F"/>
<path d="M665.74 172.57C663.76 172.57 662.04 172.22 660.58 171.52C659.14 170.82 657.94 169.91 656.98 168.79C656.04 167.65 655.33 166.43 654.85 165.13C654.39 163.81 654.16 162.54 654.16 161.32V160.66C654.16 159.32 654.4 157.99 654.88 156.67C655.36 155.33 656.08 154.12 657.04 153.04C658.02 151.96 659.23 151.1 660.67 150.46C662.11 149.8 663.8 149.47 665.74 149.47C667.66 149.47 669.34 149.8 670.78 150.46C672.22 151.1 673.42 151.96 674.38 153.04C675.36 154.12 676.09 155.33 676.57 156.67C677.05 157.99 677.29 159.32 677.29 160.66V161.32C677.29 162.54 677.05 163.81 676.57 165.13C676.11 166.43 675.4 167.65 674.44 168.79C673.5 169.91 672.3 170.82 670.84 171.52C669.4 172.22 667.7 172.57 665.74 172.57ZM665.74 168.61C666.86 168.61 667.86 168.41 668.74 168.01C669.64 167.61 670.4 167.06 671.02 166.36C671.66 165.64 672.14 164.83 672.46 163.93C672.8 163.01 672.97 162.04 672.97 161.02C672.97 159.92 672.8 158.91 672.46 157.99C672.14 157.07 671.66 156.27 671.02 155.59C670.4 154.91 669.64 154.38 668.74 154C667.84 153.62 666.84 153.43 665.74 153.43C664.62 153.43 663.61 153.62 662.71 154C661.81 154.38 661.04 154.91 660.4 155.59C659.78 156.27 659.3 157.07 658.96 157.99C658.64 158.91 658.48 159.92 658.48 161.02C658.48 162.04 658.64 163.01 658.96 163.93C659.3 164.83 659.78 165.64 660.4 166.36C661.04 167.06 661.81 167.61 662.71 168.01C663.61 168.41 664.62 168.61 665.74 168.61Z" fill="white"/>
<rect x="696" y="132.5" width="46.5" height="59" rx="9.5" fill="#0D1510"/>
<rect x="696" y="132.5" width="46.5" height="59" rx="9.5" stroke="#1E3A2F"/>
<path d="M709.55 172L703.97 150.1H708.38L712.91 169.15L711.74 168.46H714.74L713.42 169.15L716.99 150.94H720.65L716.21 172H709.55ZM722.63 172L717.8 150.94H721.61L725.72 169.15L724.43 168.46H727.37L726.23 169.15L730.22 150.1H734.39L729.41 172H722.63Z" fill="white"/>
<rect x="749.5" y="132.5" width="46.5" height="59" rx="9.5" fill="#0D1510"/>
<rect x="749.5" y="132.5" width="46.5" height="59" rx="9.5" stroke="#1E3A2F"/>
<path d="M772.42 172.57C770.48 172.57 768.84 172.26 767.5 171.64C766.18 171.02 765.17 170.17 764.47 169.09C763.77 167.99 763.42 166.75 763.42 165.37H767.59C767.59 165.95 767.75 166.52 768.07 167.08C768.39 167.62 768.9 168.06 769.6 168.4C770.32 168.74 771.26 168.91 772.42 168.91C773.46 168.91 774.33 168.76 775.03 168.46C775.73 168.16 776.25 167.77 776.59 167.29C776.93 166.79 777.1 166.23 777.1 165.61C777.1 164.83 776.77 164.21 776.11 163.75C775.45 163.27 774.43 162.97 773.05 162.85L771.13 162.7C769.03 162.52 767.35 161.87 766.09 160.75C764.85 159.61 764.23 158.11 764.23 156.25C764.23 154.85 764.56 153.65 765.22 152.65C765.88 151.63 766.8 150.85 767.98 150.31C769.18 149.75 770.58 149.47 772.18 149.47C773.84 149.47 775.27 149.76 776.47 150.34C777.67 150.92 778.6 151.74 779.26 152.8C779.92 153.84 780.25 155.07 780.25 156.49H776.08C776.08 155.89 775.93 155.34 775.63 154.84C775.35 154.32 774.92 153.91 774.34 153.61C773.78 153.29 773.06 153.13 772.18 153.13C771.34 153.13 770.64 153.27 770.08 153.55C769.52 153.83 769.1 154.21 768.82 154.69C768.54 155.17 768.4 155.69 768.4 156.25C768.4 156.93 768.65 157.53 769.15 158.05C769.65 158.55 770.44 158.84 771.52 158.92L773.44 159.1C775 159.22 776.37 159.55 777.55 160.09C778.73 160.63 779.64 161.36 780.28 162.28C780.94 163.2 781.27 164.31 781.27 165.61C781.27 166.99 780.91 168.21 780.19 169.27C779.47 170.31 778.44 171.12 777.1 171.7C775.78 172.28 774.22 172.57 772.42 172.57Z" fill="white"/>
<rect x="803" y="132.5" width="46.5" height="59" rx="9.5" fill="#0D1510"/>
<rect x="803" y="132.5" width="46.5" height="59" rx="9.5" stroke="#1E3A2F"/>
<rect x="856.5" y="132.5" width="46.5" height="59" rx="9.5" fill="#0D1510"/>
<rect x="856.5" y="132.5" width="46.5" height="59" rx="9.5" stroke="#1E3A2F"/>
<rect x="910" y="132.5" width="46.5" height="59" rx="9.5" fill="#0D1510"/>
<rect x="910" y="132.5" width="46.5" height="59" rx="9.5" stroke="#1E3A2F"/>
<rect x="963.5" y="132.5" width="46.5" height="59" rx="9.5" fill="#0D1510"/>
<rect x="963.5" y="132.5" width="46.5" height="59" rx="9.5" stroke="#1E3A2F"/>
<rect x="1017" y="132.5" width="46.5" height="59" rx="9.5" fill="#0D1510"/>
<rect x="1017" y="132.5" width="46.5" height="59" rx="9.5" stroke="#1E3A2F"/>
<rect x="1070.5" y="132.5" width="46.5" height="59" rx="9.5" fill="#0D1510"/>
<rect x="1070.5" y="132.5" width="46.5" height="59" rx="9.5" stroke="#1E3A2F"/>
<rect x="1124" y="132.5" width="46.5" height="59" rx="9.5" fill="#0D1510"/>
<rect x="1124" y="132.5" width="46.5" height="59" rx="9.5" stroke="#1E3A2F"/>
<rect x="1177.5" y="132.5" width="46.5" height="59" rx="9.5" fill="#0D1510"/>
<rect x="1177.5" y="132.5" width="46.5" height="59" rx="9.5" stroke="#1E3A2F"/>
<rect x="1231" y="132.5" width="46.5" height="59" rx="9.5" fill="#0D1510"/>
<rect x="1231" y="132.5" width="46.5" height="59" rx="9.5" stroke="#1E3A2F"/>
<path d="M1247.07 171.5V167.58C1247.07 166.721 1247.2 165.975 1247.46 165.34C1247.74 164.705 1248.19 164.145 1248.81 163.66C1249.44 163.156 1250.27 162.68 1251.3 162.232L1254.77 160.692C1255.63 160.3 1256.28 159.824 1256.73 159.264C1257.2 158.685 1257.43 157.948 1257.43 157.052C1257.43 156.063 1257.13 155.279 1256.53 154.7C1255.96 154.103 1255.12 153.804 1254.04 153.804C1252.96 153.804 1252.12 154.103 1251.52 154.7C1250.94 155.297 1250.65 156.128 1250.65 157.192H1246.82C1246.82 155.923 1247.09 154.784 1247.63 153.776C1248.17 152.749 1248.97 151.947 1250.04 151.368C1251.1 150.771 1252.44 150.472 1254.04 150.472C1255.65 150.472 1256.98 150.761 1258.05 151.34C1259.11 151.919 1259.91 152.693 1260.45 153.664C1261 154.616 1261.27 155.68 1261.27 156.856V157.22C1261.27 158.751 1260.84 160.029 1259.98 161.056C1259.12 162.064 1257.86 162.941 1256.2 163.688L1252.73 165.228C1252.07 165.508 1251.62 165.807 1251.35 166.124C1251.09 166.423 1250.96 166.833 1250.96 167.356V169.148L1250.01 168.112H1261.35V171.5H1247.07Z" fill="white"/>
<rect x="1284.5" y="132.5" width="46.5" height="59" rx="9.5" fill="#0D1510"/>
<rect x="1284.5" y="132.5" width="46.5" height="59" rx="9.5" stroke="#1E3A2F"/>
<path d="M1300.2 172V167.8C1300.2 166.88 1300.34 166.08 1300.62 165.4C1300.92 164.72 1301.4 164.12 1302.06 163.6C1302.74 163.06 1303.63 162.55 1304.73 162.07L1308.45 160.42C1309.37 160 1310.07 159.49 1310.55 158.89C1311.05 158.27 1311.3 157.48 1311.3 156.52C1311.3 155.46 1310.98 154.62 1310.34 154C1309.72 153.36 1308.83 153.04 1307.67 153.04C1306.51 153.04 1305.61 153.36 1304.97 154C1304.35 154.64 1304.04 155.53 1304.04 156.67H1299.93C1299.93 155.31 1300.22 154.09 1300.8 153.01C1301.38 151.91 1302.24 151.05 1303.38 150.43C1304.52 149.79 1305.95 149.47 1307.67 149.47C1309.39 149.47 1310.82 149.78 1311.96 150.4C1313.1 151.02 1313.96 151.85 1314.54 152.89C1315.12 153.91 1315.41 155.05 1315.41 156.31V156.7C1315.41 158.34 1314.95 159.71 1314.03 160.81C1313.11 161.89 1311.76 162.83 1309.98 163.63L1306.26 165.28C1305.56 165.58 1305.07 165.9 1304.79 166.24C1304.51 166.56 1304.37 167 1304.37 167.56V169.48L1303.35 168.37H1315.5V172H1300.2Z" fill="white"/>
<rect x="1338" y="132.5" width="46.5" height="59" rx="9.5" fill="#0D1510"/>
<rect x="1338" y="132.5" width="46.5" height="59" rx="9.5" stroke="#1E3A2F"/>
<path d="M1358.46 172V167.2H1363.14V172H1358.46Z" fill="white"/>
<rect x="1391.5" y="132.5" width="46.5" height="59" rx="9.5" fill="#0D1510"/>
<rect x="1391.5" y="132.5" width="46.5" height="59" rx="9.5" stroke="#1E3A2F"/>
<path d="M1414.62 172.57C1412.9 172.57 1411.44 172.29 1410.24 171.73C1409.04 171.15 1408.06 170.37 1407.3 169.39C1406.54 168.39 1405.98 167.25 1405.62 165.97C1405.28 164.67 1405.11 163.31 1405.11 161.89V160.21C1405.11 158.19 1405.45 156.37 1406.13 154.75C1406.81 153.13 1407.85 151.85 1409.25 150.91C1410.65 149.95 1412.44 149.47 1414.62 149.47C1416.78 149.47 1418.56 149.95 1419.96 150.91C1421.36 151.85 1422.39 153.13 1423.05 154.75C1423.73 156.37 1424.07 158.19 1424.07 160.21V161.89C1424.07 163.31 1423.89 164.67 1423.53 165.97C1423.19 167.25 1422.64 168.39 1421.88 169.39C1421.14 170.37 1420.17 171.15 1418.97 171.73C1417.77 172.29 1416.32 172.57 1414.62 172.57ZM1414.62 168.67C1416.4 168.67 1417.71 168.06 1418.55 166.84C1419.39 165.6 1419.81 163.68 1419.81 161.08C1419.81 158.32 1419.38 156.35 1418.52 155.17C1417.66 153.97 1416.36 153.37 1414.62 153.37C1412.86 153.37 1411.54 153.97 1410.66 155.17C1409.8 156.35 1409.37 158.3 1409.37 161.02C1409.37 163.64 1409.8 165.57 1410.66 166.81C1411.52 168.05 1412.84 168.67 1414.62 168.67Z" fill="white"/>
<rect x="1445" y="132.5" width="46.5" height="59" rx="9.5" fill="#0D1510"/>
<rect x="1445" y="132.5" width="46.5" height="59" rx="9.5" stroke="#1E3A2F"/>
<path d="M1467.93 172.57C1466.25 172.57 1464.8 172.25 1463.58 171.61C1462.38 170.97 1461.46 170.12 1460.82 169.06C1460.18 167.98 1459.86 166.78 1459.86 165.46H1463.97C1463.97 166.52 1464.32 167.38 1465.02 168.04C1465.74 168.68 1466.71 169 1467.93 169C1468.75 169 1469.45 168.85 1470.03 168.55C1470.63 168.23 1471.09 167.8 1471.41 167.26C1471.73 166.7 1471.89 166.06 1471.89 165.34C1471.89 164.26 1471.54 163.38 1470.84 162.7C1470.14 162 1469.18 161.65 1467.96 161.65C1467.36 161.65 1466.83 161.73 1466.37 161.89C1465.93 162.05 1465.54 162.26 1465.2 162.52L1463.25 159.16L1470.45 154.24L1470.18 153.73H1460.76V150.1H1475.07V154.48L1467.66 159.4L1465.35 158.98C1465.73 158.86 1466.14 158.77 1466.58 158.71C1467.02 158.63 1467.5 158.59 1468.02 158.59C1469.68 158.59 1471.1 158.88 1472.28 159.46C1473.48 160.02 1474.4 160.8 1475.04 161.8C1475.68 162.8 1476 163.95 1476 165.25V165.64C1476 166.9 1475.68 168.06 1475.04 169.12C1474.4 170.16 1473.48 171 1472.28 171.64C1471.08 172.26 1469.63 172.57 1467.93 172.57Z" fill="white"/>
<rect x="1498.5" y="132.5" width="46.5" height="59" rx="9.5" fill="#0D1510"/>
<rect x="1498.5" y="132.5" width="46.5" height="59" rx="9.5" stroke="#1E3A2F"/>
<path d="M1517.07 172L1525.26 154L1524.99 153.61H1513.89V150.1H1529.85V153.34L1521.54 172H1517.07ZM1513.89 157.12V150.1H1517.34V157.12H1513.89Z" fill="white"/>
<rect x="1552" y="132.5" width="46.5" height="59" rx="9.5" fill="#0D1510"/>
<rect x="1552" y="132.5" width="46.5" height="59" rx="9.5" stroke="#1E3A2F"/>
<path d="M1564.42 172.57C1562.48 172.57 1560.84 172.26 1559.5 171.64C1558.18 171.02 1557.17 170.17 1556.47 169.09C1555.77 167.99 1555.42 166.75 1555.42 165.37H1559.59C1559.59 165.95 1559.75 166.52 1560.07 167.08C1560.39 167.62 1560.9 168.06 1561.6 168.4C1562.32 168.74 1563.26 168.91 1564.42 168.91C1565.46 168.91 1566.33 168.76 1567.03 168.46C1567.73 168.16 1568.25 167.77 1568.59 167.29C1568.93 166.79 1569.1 166.23 1569.1 165.61C1569.1 164.83 1568.77 164.21 1568.11 163.75C1567.45 163.27 1566.43 162.97 1565.05 162.85L1563.13 162.7C1561.03 162.52 1559.35 161.87 1558.09 160.75C1556.85 159.61 1556.23 158.11 1556.23 156.25C1556.23 154.85 1556.56 153.65 1557.22 152.65C1557.88 151.63 1558.8 150.85 1559.98 150.31C1561.18 149.75 1562.58 149.47 1564.18 149.47C1565.84 149.47 1567.27 149.76 1568.47 150.34C1569.67 150.92 1570.6 151.74 1571.26 152.8C1571.92 153.84 1572.25 155.07 1572.25 156.49H1568.08C1568.08 155.89 1567.93 155.34 1567.63 154.84C1567.35 154.32 1566.92 153.91 1566.34 153.61C1565.78 153.29 1565.06 153.13 1564.18 153.13C1563.34 153.13 1562.64 153.27 1562.08 153.55C1561.52 153.83 1561.1 154.21 1560.82 154.69C1560.54 155.17 1560.4 155.69 1560.4 156.25C1560.4 156.93 1560.65 157.53 1561.15 158.05C1561.65 158.55 1562.44 158.84 1563.52 158.92L1565.44 159.1C1567 159.22 1568.37 159.55 1569.55 160.09C1570.73 160.63 1571.64 161.36 1572.28 162.28C1572.94 163.2 1573.27 164.31 1573.27 165.61C1573.27 166.99 1572.91 168.21 1572.19 169.27C1571.47 170.31 1570.44 171.12 1569.1 171.7C1567.78 172.28 1566.22 172.57 1564.42 172.57ZM1583.91 172.21C1582.41 172.21 1581.17 172.02 1580.19 171.64C1579.23 171.24 1578.51 170.58 1578.03 169.66C1577.55 168.72 1577.31 167.46 1577.31 165.88L1577.34 151.12H1581.24L1581.21 166.15C1581.21 166.95 1581.42 167.57 1581.84 168.01C1582.28 168.43 1582.9 168.64 1583.7 168.64H1586.25V172.21H1583.91ZM1574.73 158.77V155.71H1586.25V158.77H1574.73ZM1589.09 172V167.2H1593.77V172H1589.09Z" fill="white"/>
<rect x="1605.5" y="132.5" width="46.5" height="59" rx="9.5" fill="#0D1510"/>
<rect x="1605.5" y="132.5" width="46.5" height="59" rx="9.5" stroke="#1E3A2F"/>
<rect x="1659" y="132.5" width="46.5" height="59" rx="9.5" fill="#0D1510"/>
<rect x="1659" y="132.5" width="46.5" height="59" rx="9.5" stroke="#1E3A2F"/>
<rect x="1712.5" y="132.5" width="46.5" height="59" rx="9.5" fill="#0D1510"/>
<rect x="1712.5" y="132.5" width="46.5" height="59" rx="9.5" stroke="#1E3A2F"/>
<rect x="1766" y="132.5" width="46.5" height="59" rx="9.5" fill="#0D1510"/>
<rect x="1766" y="132.5" width="46.5" height="59" rx="9.5" stroke="#1E3A2F"/>
<rect x="1819.5" y="132.5" width="46.5" height="59" rx="9.5" fill="#0D1510"/>
<rect x="1819.5" y="132.5" width="46.5" height="59" rx="9.5" stroke="#1E3A2F"/>
<rect x="1873" y="132.5" width="46.5" height="59" rx="9.5" fill="#0D1510"/>
<rect x="1873" y="132.5" width="46.5" height="59" rx="9.5" stroke="#1E3A2F"/>
<rect x="0.5" y="198.5" width="46.5" height="59" rx="9.5" fill="#0D1510"/>
<rect x="0.5" y="198.5" width="46.5" height="59" rx="9.5" stroke="#1E3A2F"/>
<rect x="54" y="198.5" width="46.5" height="59" rx="9.5" fill="#0D1510"/>
<rect x="54" y="198.5" width="46.5" height="59" rx="9.5" stroke="#1E3A2F"/>
<rect x="107.5" y="198.5" width="46.5" height="59" rx="9.5" fill="#0D1510"/>
<rect x="107.5" y="198.5" width="46.5" height="59" rx="9.5" stroke="#1E3A2F"/>
<rect x="161" y="198.5" width="46.5" height="59" rx="9.5" fill="#0D1510"/>
<rect x="161" y="198.5" width="46.5" height="59" rx="9.5" stroke="#1E3A2F"/>
<rect x="214.5" y="198.5" width="46.5" height="59" rx="9.5" fill="#0D1510"/>
<rect x="214.5" y="198.5" width="46.5" height="59" rx="9.5" stroke="#1E3A2F"/>
<rect x="268" y="198.5" width="46.5" height="59" rx="9.5" fill="#0D1510"/>
<rect x="268" y="198.5" width="46.5" height="59" rx="9.5" stroke="#1E3A2F"/>
<rect x="321.5" y="198.5" width="46.5" height="59" rx="9.5" fill="#0D1510"/>
<rect x="321.5" y="198.5" width="46.5" height="59" rx="9.5" stroke="#1E3A2F"/>
<path d="M333.29 238L340.76 216.1H347.72L355.4 238H351.02L344.51 219.01L346.04 219.67H342.29L343.85 219.01L337.55 238H333.29ZM338.51 232.18L339.86 228.58H348.74L350.06 232.18H338.51Z" fill="white"/>
<rect x="375" y="198.5" width="46.5" height="59" rx="9.5" fill="#0D1510"/>
<rect x="375" y="198.5" width="46.5" height="59" rx="9.5" stroke="#1E3A2F"/>
<path d="M397.98 238.57C395.94 238.57 394.22 238.18 392.82 237.4C391.42 236.62 390.35 235.53 389.61 234.13C388.89 232.71 388.53 231.05 388.53 229.15V216.1H392.79V229.39C392.79 230.43 392.99 231.35 393.39 232.15C393.79 232.93 394.37 233.54 395.13 233.98C395.91 234.4 396.86 234.61 397.98 234.61C399.08 234.61 400.01 234.4 400.77 233.98C401.55 233.54 402.13 232.93 402.51 232.15C402.91 231.37 403.11 230.45 403.11 229.39V216.1H407.37V229.15C407.37 231.05 407.01 232.71 406.29 234.13C405.59 235.53 404.54 236.62 403.14 237.4C401.74 238.18 400.02 238.57 397.98 238.57Z" fill="white"/>
<rect x="428.5" y="198.5" width="46.5" height="59" rx="9.5" fill="#0D1510"/>
<rect x="428.5" y="198.5" width="46.5" height="59" rx="9.5" stroke="#1E3A2F"/>
<path d="M445.95 238V216.1H450.21V238H445.95ZM449.61 228.88V225.28L458.37 225.25V228.85L449.61 228.88ZM449.61 219.7V216.1H458.79V219.7H449.61Z" fill="white"/>
<rect x="482" y="198.5" width="46.5" height="59" rx="9.5" fill="#0D1510"/>
<rect x="482" y="198.5" width="46.5" height="59" rx="9.5" stroke="#1E3A2F"/>
<path d="M505.65 238.57C503.77 238.57 502.11 238.26 500.67 237.64C499.25 237 498.05 236.15 497.07 235.09C496.11 234.01 495.38 232.8 494.88 231.46C494.4 230.1 494.16 228.69 494.16 227.23V226.57C494.16 225.19 494.4 223.84 494.88 222.52C495.36 221.2 496.06 220.01 496.98 218.95C497.92 217.89 499.07 217.05 500.43 216.43C501.81 215.79 503.39 215.47 505.17 215.47C507.09 215.47 508.79 215.83 510.27 216.55C511.75 217.25 512.94 218.24 513.84 219.52C514.74 220.78 515.27 222.25 515.43 223.93H511.14C511 222.99 510.65 222.19 510.09 221.53C509.53 220.85 508.82 220.33 507.96 219.97C507.12 219.61 506.19 219.43 505.17 219.43C504.15 219.43 503.22 219.61 502.38 219.97C501.56 220.33 500.86 220.84 500.28 221.5C499.7 222.16 499.25 222.95 498.93 223.87C498.63 224.79 498.48 225.81 498.48 226.93C498.48 228.15 498.65 229.24 498.99 230.2C499.33 231.16 499.81 231.98 500.43 232.66C501.05 233.32 501.8 233.83 502.68 234.19C503.56 234.53 504.55 234.7 505.65 234.7C507.11 234.7 508.39 234.4 509.49 233.8C510.59 233.18 511.39 232.38 511.89 231.4L511.14 234.85V229.21H515.07V234.07C514.13 235.49 512.85 236.6 511.23 237.4C509.61 238.18 507.75 238.57 505.65 238.57ZM504.96 230.05V226.87H516.9V230.05H504.96Z" fill="white"/>
<rect x="535.5" y="198.5" width="46.5" height="59" rx="9.5" fill="#0D1510"/>
<rect x="535.5" y="198.5" width="46.5" height="59" rx="9.5" stroke="#1E3A2F"/>
<path d="M552.45 238V216.1H556.62V238H552.45ZM556.02 238V234.4H565.95V238H556.02ZM556.02 228.67V225.07H565.17V228.67H556.02ZM556.02 219.7V216.1H565.71V219.7H556.02Z" fill="white"/>
<rect x="589" y="198.5" width="46.5" height="59" rx="9.5" fill="#0D1510"/>
<rect x="589" y="198.5" width="46.5" height="59" rx="9.5" stroke="#1E3A2F"/>
<path d="M606.45 238V216.1H610.71V238H606.45ZM610.11 238V234.25H619.56V238H610.11Z" fill="white"/>
<rect x="642.5" y="198.5" width="46.5" height="59" rx="9.5" fill="#0D1510"/>
<rect x="642.5" y="198.5" width="46.5" height="59" rx="9.5" stroke="#1E3A2F"/>
<path d="M665.74 238.57C663.76 238.57 662.04 238.22 660.58 237.52C659.14 236.82 657.94 235.91 656.98 234.79C656.04 233.65 655.33 232.43 654.85 231.13C654.39 229.81 654.16 228.54 654.16 227.32V226.66C654.16 225.32 654.4 223.99 654.88 222.67C655.36 221.33 656.08 220.12 657.04 219.04C658.02 217.96 659.23 217.1 660.67 216.46C662.11 215.8 663.8 215.47 665.74 215.47C667.66 215.47 669.34 215.8 670.78 216.46C672.22 217.1 673.42 217.96 674.38 219.04C675.36 220.12 676.09 221.33 676.57 222.67C677.05 223.99 677.29 225.32 677.29 226.66V227.32C677.29 228.54 677.05 229.81 676.57 231.13C676.11 232.43 675.4 233.65 674.44 234.79C673.5 235.91 672.3 236.82 670.84 237.52C669.4 238.22 667.7 238.57 665.74 238.57ZM665.74 234.61C666.86 234.61 667.86 234.41 668.74 234.01C669.64 233.61 670.4 233.06 671.02 232.36C671.66 231.64 672.14 230.83 672.46 229.93C672.8 229.01 672.97 228.04 672.97 227.02C672.97 225.92 672.8 224.91 672.46 223.99C672.14 223.07 671.66 222.27 671.02 221.59C670.4 220.91 669.64 220.38 668.74 220C667.84 219.62 666.84 219.43 665.74 219.43C664.62 219.43 663.61 219.62 662.71 220C661.81 220.38 661.04 220.91 660.4 221.59C659.78 222.27 659.3 223.07 658.96 223.99C658.64 224.91 658.48 225.92 658.48 227.02C658.48 228.04 658.64 229.01 658.96 229.93C659.3 230.83 659.78 231.64 660.4 232.36C661.04 233.06 661.81 233.61 662.71 234.01C663.61 234.41 664.62 234.61 665.74 234.61ZM662.41 213.97C661.63 213.97 661.03 213.76 660.61 213.34C660.21 212.92 660.01 212.37 660.01 211.69C660.01 211.03 660.21 210.49 660.61 210.07C661.03 209.65 661.63 209.44 662.41 209.44C663.25 209.44 663.86 209.65 664.24 210.07C664.64 210.49 664.84 211.04 664.84 211.72C664.84 212.38 664.64 212.92 664.24 213.34C663.86 213.76 663.25 213.97 662.41 213.97ZM669.01 213.97C668.23 213.97 667.63 213.76 667.21 213.34C666.81 212.92 666.61 212.37 666.61 211.69C666.61 211.03 666.81 210.49 667.21 210.07C667.63 209.65 668.23 209.44 669.01 209.44C669.85 209.44 670.46 209.65 670.84 210.07C671.24 210.49 671.44 211.04 671.44 211.72C671.44 212.38 671.24 212.92 670.84 213.34C670.46 213.76 669.85 213.97 669.01 213.97Z" fill="white"/>
<rect x="696" y="198.5" width="46.5" height="59" rx="9.5" fill="#0D1510"/>
<rect x="696" y="198.5" width="46.5" height="59" rx="9.5" stroke="#1E3A2F"/>
<path d="M718.92 238.57C716.98 238.57 715.34 238.26 714 237.64C712.68 237.02 711.67 236.17 710.97 235.09C710.27 233.99 709.92 232.75 709.92 231.37H714.09C714.09 231.95 714.25 232.52 714.57 233.08C714.89 233.62 715.4 234.06 716.1 234.4C716.82 234.74 717.76 234.91 718.92 234.91C719.96 234.91 720.83 234.76 721.53 234.46C722.23 234.16 722.75 233.77 723.09 233.29C723.43 232.79 723.6 232.23 723.6 231.61C723.6 230.83 723.27 230.21 722.61 229.75C721.95 229.27 720.93 228.97 719.55 228.85L717.63 228.7C715.53 228.52 713.85 227.87 712.59 226.75C711.35 225.61 710.73 224.11 710.73 222.25C710.73 220.85 711.06 219.65 711.72 218.65C712.38 217.63 713.3 216.85 714.48 216.31C715.68 215.75 717.08 215.47 718.68 215.47C720.34 215.47 721.77 215.76 722.97 216.34C724.17 216.92 725.1 217.74 725.76 218.8C726.42 219.84 726.75 221.07 726.75 222.49H722.58C722.58 221.89 722.43 221.34 722.13 220.84C721.85 220.32 721.42 219.91 720.84 219.61C720.28 219.29 719.56 219.13 718.68 219.13C717.84 219.13 717.14 219.27 716.58 219.55C716.02 219.83 715.6 220.21 715.32 220.69C715.04 221.17 714.9 221.69 714.9 222.25C714.9 222.93 715.15 223.53 715.65 224.05C716.15 224.55 716.94 224.84 718.02 224.92L719.94 225.1C721.5 225.22 722.87 225.55 724.05 226.09C725.23 226.63 726.14 227.36 726.78 228.28C727.44 229.2 727.77 230.31 727.77 231.61C727.77 232.99 727.41 234.21 726.69 235.27C725.97 236.31 724.94 237.12 723.6 237.7C722.28 238.28 720.72 238.57 718.92 238.57Z" fill="white"/>
<rect x="749.5" y="198.5" width="46.5" height="59" rx="9.5" fill="#0D1510"/>
<rect x="749.5" y="198.5" width="46.5" height="59" rx="9.5" stroke="#1E3A2F"/>
<path d="M770.27 238V219.25H774.53V238H770.27ZM763.94 219.85V216.1H780.86V219.85H763.94Z" fill="white"/>
<rect x="803" y="198.5" width="46.5" height="59" rx="9.5" fill="#0D1510"/>
<rect x="803" y="198.5" width="46.5" height="59" rx="9.5" stroke="#1E3A2F"/>
<rect x="856.5" y="198.5" width="46.5" height="59" rx="9.5" fill="#0D1510"/>
<rect x="856.5" y="198.5" width="46.5" height="59" rx="9.5" stroke="#1E3A2F"/>
<rect x="910" y="198.5" width="46.5" height="59" rx="9.5" fill="#0D1510"/>
<rect x="910" y="198.5" width="46.5" height="59" rx="9.5" stroke="#1E3A2F"/>
<rect x="963.5" y="198.5" width="46.5" height="59" rx="9.5" fill="#0D1510"/>
<rect x="963.5" y="198.5" width="46.5" height="59" rx="9.5" stroke="#1E3A2F"/>
<rect x="1017" y="198.5" width="46.5" height="59" rx="9.5" fill="#0D1510"/>
<rect x="1017" y="198.5" width="46.5" height="59" rx="9.5" stroke="#1E3A2F"/>
<rect x="1070.5" y="198.5" width="46.5" height="59" rx="9.5" fill="#0D1510"/>
<rect x="1070.5" y="198.5" width="46.5" height="59" rx="9.5" stroke="#1E3A2F"/>
<rect x="1124" y="198.5" width="46.5" height="59" rx="9.5" fill="#0D1510"/>
<rect x="1124" y="198.5" width="46.5" height="59" rx="9.5" stroke="#1E3A2F"/>
<rect x="1177.5" y="198.5" width="46.5" height="59" rx="9.5" fill="#0D1510"/>
<rect x="1177.5" y="198.5" width="46.5" height="59" rx="9.5" stroke="#1E3A2F"/>
<path d="M1199.8 238V218.74L1201.12 219.76H1195.33V216.1H1204.03V238H1199.8Z" fill="white"/>
<rect x="1231" y="198.5" width="46.5" height="59" rx="9.5" fill="#0D1510"/>
<rect x="1231" y="198.5" width="46.5" height="59" rx="9.5" stroke="#1E3A2F"/>
<path d="M1254.43 238.63C1252.81 238.63 1251.43 238.36 1250.29 237.82C1249.17 237.26 1248.26 236.5 1247.56 235.54C1246.86 234.58 1246.35 233.47 1246.03 232.21C1245.71 230.93 1245.55 229.58 1245.55 228.16V226.84C1245.55 223.26 1246.45 220.55 1248.25 218.71C1250.07 216.85 1252.73 215.92 1256.23 215.92C1256.99 215.92 1257.7 215.94 1258.36 215.98C1259.02 216.02 1259.68 216.08 1260.34 216.16V219.73C1259.68 219.65 1259 219.59 1258.3 219.55C1257.62 219.51 1256.88 219.49 1256.08 219.49C1254.4 219.49 1253.08 219.78 1252.12 220.36C1251.16 220.94 1250.47 221.79 1250.05 222.91C1249.65 224.03 1249.45 225.42 1249.45 227.08V229.03L1248.49 230.41C1248.51 228.87 1248.81 227.6 1249.39 226.6C1249.99 225.58 1250.81 224.82 1251.85 224.32C1252.89 223.8 1254.08 223.54 1255.42 223.54C1256.98 223.54 1258.31 223.85 1259.41 224.47C1260.51 225.09 1261.35 225.95 1261.93 227.05C1262.53 228.15 1262.83 229.43 1262.83 230.89C1262.83 232.41 1262.49 233.76 1261.81 234.94C1261.13 236.1 1260.16 237.01 1258.9 237.67C1257.66 238.31 1256.17 238.63 1254.43 238.63ZM1254.34 235.06C1255.28 235.06 1256.08 234.89 1256.74 234.55C1257.4 234.19 1257.9 233.7 1258.24 233.08C1258.58 232.46 1258.75 231.75 1258.75 230.95C1258.75 230.13 1258.58 229.41 1258.24 228.79C1257.92 228.17 1257.44 227.69 1256.8 227.35C1256.16 227.01 1255.39 226.84 1254.49 226.84C1253.63 226.84 1252.84 227 1252.12 227.32C1251.42 227.62 1250.86 228.08 1250.44 228.7C1250.04 229.3 1249.84 230.05 1249.84 230.95C1249.84 231.73 1250 232.43 1250.32 233.05C1250.66 233.67 1251.16 234.16 1251.82 234.52C1252.5 234.88 1253.34 235.06 1254.34 235.06Z" fill="white"/>
<rect x="1284.5" y="198.5" width="46.5" height="59" rx="9.5" fill="#0D1510"/>
<rect x="1284.5" y="198.5" width="46.5" height="59" rx="9.5" stroke="#1E3A2F"/>
<path d="M1307.43 238.57C1305.75 238.57 1304.3 238.25 1303.08 237.61C1301.88 236.97 1300.96 236.12 1300.32 235.06C1299.68 233.98 1299.36 232.78 1299.36 231.46H1303.47C1303.47 232.52 1303.82 233.38 1304.52 234.04C1305.24 234.68 1306.21 235 1307.43 235C1308.25 235 1308.95 234.85 1309.53 234.55C1310.13 234.23 1310.59 233.8 1310.91 233.26C1311.23 232.7 1311.39 232.06 1311.39 231.34C1311.39 230.26 1311.04 229.38 1310.34 228.7C1309.64 228 1308.68 227.65 1307.46 227.65C1306.86 227.65 1306.33 227.73 1305.87 227.89C1305.43 228.05 1305.04 228.26 1304.7 228.52L1302.75 225.16L1309.95 220.24L1309.68 219.73H1300.26V216.1H1314.57V220.48L1307.16 225.4L1304.85 224.98C1305.23 224.86 1305.64 224.77 1306.08 224.71C1306.52 224.63 1307 224.59 1307.52 224.59C1309.18 224.59 1310.6 224.88 1311.78 225.46C1312.98 226.02 1313.9 226.8 1314.54 227.8C1315.18 228.8 1315.5 229.95 1315.5 231.25V231.64C1315.5 232.9 1315.18 234.06 1314.54 235.12C1313.9 236.16 1312.98 237 1311.78 237.64C1310.58 238.26 1309.13 238.57 1307.43 238.57Z" fill="white"/>
<rect x="1338" y="198.5" width="46.5" height="59" rx="9.5" fill="#0D1510"/>
<rect x="1338" y="198.5" width="46.5" height="59" rx="9.5" stroke="#1E3A2F"/>
<path d="M1358.46 238V233.2H1363.14V238H1358.46Z" fill="white"/>
<rect x="1391.5" y="198.5" width="46.5" height="59" rx="9.5" fill="#0D1510"/>
<rect x="1391.5" y="198.5" width="46.5" height="59" rx="9.5" stroke="#1E3A2F"/>
<path d="M1414.43 238.57C1412.75 238.57 1411.3 238.25 1410.08 237.61C1408.88 236.97 1407.96 236.12 1407.32 235.06C1406.68 233.98 1406.36 232.78 1406.36 231.46H1410.47C1410.47 232.52 1410.82 233.38 1411.52 234.04C1412.24 234.68 1413.21 235 1414.43 235C1415.25 235 1415.95 234.85 1416.53 234.55C1417.13 234.23 1417.59 233.8 1417.91 233.26C1418.23 232.7 1418.39 232.06 1418.39 231.34C1418.39 230.26 1418.04 229.38 1417.34 228.7C1416.64 228 1415.68 227.65 1414.46 227.65C1413.86 227.65 1413.33 227.73 1412.87 227.89C1412.43 228.05 1412.04 228.26 1411.7 228.52L1409.75 225.16L1416.95 220.24L1416.68 219.73H1407.26V216.1H1421.57V220.48L1414.16 225.4L1411.85 224.98C1412.23 224.86 1412.64 224.77 1413.08 224.71C1413.52 224.63 1414 224.59 1414.52 224.59C1416.18 224.59 1417.6 224.88 1418.78 225.46C1419.98 226.02 1420.9 226.8 1421.54 227.8C1422.18 228.8 1422.5 229.95 1422.5 231.25V231.64C1422.5 232.9 1422.18 234.06 1421.54 235.12C1420.9 236.16 1419.98 237 1418.78 237.64C1417.58 238.26 1416.13 238.57 1414.43 238.57Z" fill="white"/>
<rect x="1445" y="198.5" width="46.5" height="59" rx="9.5" fill="#0D1510"/>
<rect x="1445" y="198.5" width="46.5" height="59" rx="9.5" stroke="#1E3A2F"/>
<path d="M1463.57 238L1471.76 220L1471.49 219.61H1460.39V216.1H1476.35V219.34L1468.04 238H1463.57ZM1460.39 223.12V216.1H1463.84V223.12H1460.39Z" fill="white"/>
<rect x="1498.5" y="198.5" width="46.5" height="59" rx="9.5" fill="#0D1510"/>
<rect x="1498.5" y="198.5" width="46.5" height="59" rx="9.5" stroke="#1E3A2F"/>
<path d="M1512.89 233.47V228.85L1521.47 215.5L1524.68 217.69L1517.12 229.51L1517.48 230.11H1530.92V233.47H1512.89ZM1524.35 238V222.31H1528.28V238H1524.35Z" fill="white"/>
<rect x="1552" y="198.5" width="46.5" height="59" rx="9.5" fill="#0D1510"/>
<rect x="1552" y="198.5" width="46.5" height="59" rx="9.5" stroke="#1E3A2F"/>
<path d="M1567.62 238V216.1H1571.79V228.88H1571.07C1571.07 227.24 1571.28 225.85 1571.7 224.71C1572.12 223.57 1572.74 222.7 1573.56 222.1C1574.4 221.5 1575.46 221.2 1576.74 221.2H1576.92C1578.78 221.2 1580.19 221.84 1581.15 223.12C1582.11 224.4 1582.59 226.26 1582.59 228.7V238H1578.42V228.31C1578.42 227.27 1578.12 226.45 1577.52 225.85C1576.94 225.25 1576.17 224.95 1575.21 224.95C1574.19 224.95 1573.36 225.29 1572.72 225.97C1572.1 226.63 1571.79 227.5 1571.79 228.58V238H1567.62Z" fill="white"/>
<rect x="1605.5" y="198.5" width="46.5" height="59" rx="9.5" fill="#0D1510"/>
<rect x="1605.5" y="198.5" width="46.5" height="59" rx="9.5" stroke="#1E3A2F"/>
<rect x="1659" y="198.5" width="46.5" height="59" rx="9.5" fill="#0D1510"/>
<rect x="1659" y="198.5" width="46.5" height="59" rx="9.5" stroke="#1E3A2F"/>
<rect x="1712.5" y="198.5" width="46.5" height="59" rx="9.5" fill="#0D1510"/>
<rect x="1712.5" y="198.5" width="46.5" height="59" rx="9.5" stroke="#1E3A2F"/>
<rect x="1766" y="198.5" width="46.5" height="59" rx="9.5" fill="#0D1510"/>
<rect x="1766" y="198.5" width="46.5" height="59" rx="9.5" stroke="#1E3A2F"/>
<rect x="1819.5" y="198.5" width="46.5" height="59" rx="9.5" fill="#0D1510"/>
<rect x="1819.5" y="198.5" width="46.5" height="59" rx="9.5" stroke="#1E3A2F"/>
<rect x="1873" y="198.5" width="46.5" height="59" rx="9.5" fill="#0D1510"/>
<rect x="1873" y="198.5" width="46.5" height="59" rx="9.5" stroke="#1E3A2F"/>
<rect x="0.5" y="264.5" width="46.5" height="59" rx="9.5" fill="#0D1510"/>
<rect x="0.5" y="264.5" width="46.5" height="59" rx="9.5" stroke="#1E3A2F"/>
<rect x="54" y="264.5" width="46.5" height="59" rx="9.5" fill="#0D1510"/>
<rect x="54" y="264.5" width="46.5" height="59" rx="9.5" stroke="#1E3A2F"/>
<rect x="107.5" y="264.5" width="46.5" height="59" rx="9.5" fill="#0D1510"/>
<rect x="107.5" y="264.5" width="46.5" height="59" rx="9.5" stroke="#1E3A2F"/>
<rect x="161" y="264.5" width="46.5" height="59" rx="9.5" fill="#0D1510"/>
<rect x="161" y="264.5" width="46.5" height="59" rx="9.5" stroke="#1E3A2F"/>
<rect x="214.5" y="264.5" width="46.5" height="59" rx="9.5" fill="#0D1510"/>
<rect x="214.5" y="264.5" width="46.5" height="59" rx="9.5" stroke="#1E3A2F"/>
<rect x="268" y="264.5" width="46.5" height="59" rx="9.5" fill="#0D1510"/>
<rect x="268" y="264.5" width="46.5" height="59" rx="9.5" stroke="#1E3A2F"/>
<rect x="321.5" y="264.5" width="46.5" height="59" rx="9.5" fill="#0D1510"/>
<rect x="321.5" y="264.5" width="46.5" height="59" rx="9.5" stroke="#1E3A2F"/>
<rect x="375" y="264.5" width="46.5" height="59" rx="9.5" fill="#0D1510"/>
<rect x="375" y="264.5" width="46.5" height="59" rx="9.5" stroke="#1E3A2F"/>
<rect x="428.5" y="264.5" width="46.5" height="59" rx="9.5" fill="#0D1510"/>
<rect x="428.5" y="264.5" width="46.5" height="59" rx="9.5" stroke="#1E3A2F"/>
<rect x="482" y="264.5" width="46.5" height="59" rx="9.5" fill="#0D1510"/>
<rect x="482" y="264.5" width="46.5" height="59" rx="9.5" stroke="#1E3A2F"/>
<rect x="535.5" y="264.5" width="46.5" height="59" rx="9.5" fill="#0D1510"/>
<rect x="535.5" y="264.5" width="46.5" height="59" rx="9.5" stroke="#1E3A2F"/>
<rect x="589" y="264.5" width="46.5" height="59" rx="9.5" fill="#0D1510"/>
<rect x="589" y="264.5" width="46.5" height="59" rx="9.5" stroke="#1E3A2F"/>
<rect x="642.5" y="264.5" width="46.5" height="59" rx="9.5" fill="#0D1510"/>
<rect x="642.5" y="264.5" width="46.5" height="59" rx="9.5" stroke="#1E3A2F"/>
<rect x="696" y="264.5" width="46.5" height="59" rx="9.5" fill="#0D1510"/>
<rect x="696" y="264.5" width="46.5" height="59" rx="9.5" stroke="#1E3A2F"/>
<rect x="749.5" y="264.5" width="46.5" height="59" rx="9.5" fill="#0D1510"/>
<rect x="749.5" y="264.5" width="46.5" height="59" rx="9.5" stroke="#1E3A2F"/>
<rect x="803" y="264.5" width="46.5" height="59" rx="9.5" fill="#0D1510"/>
<rect x="803" y="264.5" width="46.5" height="59" rx="9.5" stroke="#1E3A2F"/>
<rect x="856.5" y="264.5" width="46.5" height="59" rx="9.5" fill="#0D1510"/>
<rect x="856.5" y="264.5" width="46.5" height="59" rx="9.5" stroke="#1E3A2F"/>
<rect x="910" y="264.5" width="46.5" height="59" rx="9.5" fill="#0D1510"/>
<rect x="910" y="264.5" width="46.5" height="59" rx="9.5" stroke="#1E3A2F"/>
<rect x="963.5" y="264.5" width="46.5" height="59" rx="9.5" fill="#0D1510"/>
<rect x="963.5" y="264.5" width="46.5" height="59" rx="9.5" stroke="#1E3A2F"/>
<rect x="1017" y="264.5" width="46.5" height="59" rx="9.5" fill="#0D1510"/>
<rect x="1017" y="264.5" width="46.5" height="59" rx="9.5" stroke="#1E3A2F"/>
<rect x="1070.5" y="264.5" width="46.5" height="59" rx="9.5" fill="#0D1510"/>
<rect x="1070.5" y="264.5" width="46.5" height="59" rx="9.5" stroke="#1E3A2F"/>
<rect x="1124" y="264.5" width="46.5" height="59" rx="9.5" fill="#0D1510"/>
<rect x="1124" y="264.5" width="46.5" height="59" rx="9.5" stroke="#1E3A2F"/>
<rect x="1177.5" y="264.5" width="46.5" height="59" rx="9.5" fill="#0D1510"/>
<rect x="1177.5" y="264.5" width="46.5" height="59" rx="9.5" stroke="#1E3A2F"/>
<rect x="1231" y="264.5" width="46.5" height="59" rx="9.5" fill="#0D1510"/>
<rect x="1231" y="264.5" width="46.5" height="59" rx="9.5" stroke="#1E3A2F"/>
<rect x="1284.5" y="264.5" width="46.5" height="59" rx="9.5" fill="#0D1510"/>
<rect x="1284.5" y="264.5" width="46.5" height="59" rx="9.5" stroke="#1E3A2F"/>
<rect x="1338" y="264.5" width="46.5" height="59" rx="9.5" fill="#0D1510"/>
<rect x="1338" y="264.5" width="46.5" height="59" rx="9.5" stroke="#1E3A2F"/>
<rect x="1391.5" y="264.5" width="46.5" height="59" rx="9.5" fill="#0D1510"/>
<rect x="1391.5" y="264.5" width="46.5" height="59" rx="9.5" stroke="#1E3A2F"/>
<rect x="1445" y="264.5" width="46.5" height="59" rx="9.5" fill="#0D1510"/>
<rect x="1445" y="264.5" width="46.5" height="59" rx="9.5" stroke="#1E3A2F"/>
<rect x="1498.5" y="264.5" width="46.5" height="59" rx="9.5" fill="#0D1510"/>
<rect x="1498.5" y="264.5" width="46.5" height="59" rx="9.5" stroke="#1E3A2F"/>
<rect x="1552" y="264.5" width="46.5" height="59" rx="9.5" fill="#0D1510"/>
<rect x="1552" y="264.5" width="46.5" height="59" rx="9.5" stroke="#1E3A2F"/>
<rect x="1605.5" y="264.5" width="46.5" height="59" rx="9.5" fill="#0D1510"/>
<rect x="1605.5" y="264.5" width="46.5" height="59" rx="9.5" stroke="#1E3A2F"/>
<rect x="1659" y="264.5" width="46.5" height="59" rx="9.5" fill="#0D1510"/>
<rect x="1659" y="264.5" width="46.5" height="59" rx="9.5" stroke="#1E3A2F"/>
<rect x="1712.5" y="264.5" width="46.5" height="59" rx="9.5" fill="#0D1510"/>
<rect x="1712.5" y="264.5" width="46.5" height="59" rx="9.5" stroke="#1E3A2F"/>
<rect x="1766" y="264.5" width="46.5" height="59" rx="9.5" fill="#0D1510"/>
<rect x="1766" y="264.5" width="46.5" height="59" rx="9.5" stroke="#1E3A2F"/>
<rect x="1819.5" y="264.5" width="46.5" height="59" rx="9.5" fill="#0D1510"/>
<rect x="1819.5" y="264.5" width="46.5" height="59" rx="9.5" stroke="#1E3A2F"/>
<rect x="1873" y="264.5" width="46.5" height="59" rx="9.5" fill="#0D1510"/>
<rect x="1873" y="264.5" width="46.5" height="59" rx="9.5" stroke="#1E3A2F"/>
</svg>
