<svg width="30" height="30" viewBox="0 0 30 30" fill="none" xmlns="http://www.w3.org/2000/svg">
<path d="M21.1778 19.391C19.6057 21.3856 17.3777 22.7586 14.8893 23.2663C12.4009 23.7741 9.81308 23.3838 7.58517 22.1647C5.35726 20.9455 3.63338 18.9764 2.71952 16.6069C1.80566 14.2373 1.76093 11.6206 2.59328 9.22121C3.42563 6.82181 5.08121 4.79494 7.26616 3.50036C9.45111 2.20578 12.0241 1.72722 14.5284 2.14966C17.0327 2.57211 19.3063 3.86822 20.9456 5.80791C22.585 7.7476 23.4841 10.2054 23.4832 12.7451C23.4828 13.5027 23.403 14.2581 23.245 14.999" stroke="#807F8C" stroke-width="3" stroke-linecap="round" stroke-linejoin="round"/>
<path d="M20.4139 20.4139L28 28" stroke="#807F8C" stroke-width="3" stroke-miterlimit="10" stroke-linecap="round"/>
</svg>
