<svg width="18" height="19" viewBox="0 0 18 19" fill="none" xmlns="http://www.w3.org/2000/svg">
<g clip-path="url(#clip0_11_266)">
<path d="M17.5366 2.73341C17.5228 2.67014 17.4925 2.61167 17.4488 2.56395C17.405 2.51623 17.3493 2.48098 17.2875 2.4618C17.0624 2.4174 16.8295 2.43405 16.613 2.51001C16.613 2.51001 1.59322 7.90841 0.735541 8.50626C0.550184 8.63484 0.488577 8.7093 0.458041 8.79769C0.309648 9.22305 0.771434 9.41055 0.771434 9.41055L4.64251 10.6722C4.70789 10.6835 4.77501 10.6794 4.83858 10.6604C5.71929 10.1043 13.6988 5.06537 14.16 4.89609C14.2323 4.87412 14.2859 4.89609 14.2741 4.94966C14.0855 5.59573 7.19465 11.7195 7.15661 11.757C7.13812 11.7721 7.12359 11.7916 7.11426 11.8136C7.10493 11.8356 7.10108 11.8596 7.10304 11.8834L6.74304 15.6607C6.74304 15.6607 6.59197 16.8393 7.7684 15.6607C8.60251 14.8255 9.40286 14.1345 9.80411 13.7986C11.1354 14.7173 12.5679 15.7336 13.1855 16.2629C13.2892 16.3635 13.412 16.4423 13.5468 16.4944C13.6816 16.5465 13.8254 16.5709 13.9698 16.5661C14.5591 16.5436 14.7198 15.8991 14.7198 15.8991C14.7198 15.8991 17.4563 4.88751 17.5484 3.41162C17.557 3.26698 17.5693 3.1743 17.5704 3.07519C17.5752 2.96024 17.5639 2.84518 17.5366 2.73341Z" fill="#757185"/>
</g>
<defs>
<clipPath id="clip0_11_266">
<rect width="17.1429" height="17.1429" fill="white" transform="translate(0.428574 0.928711)"/>
</clipPath>
</defs>
</svg>
