<svg width="18" height="15" viewBox="0 0 18 15" fill="none" xmlns="http://www.w3.org/2000/svg">
<path d="M17.5713 2.19685C16.9284 2.4647 16.2856 2.67899 15.5356 2.73256C16.2856 2.30399 16.8213 1.60756 17.0891 0.80399C16.3927 1.23256 15.6427 1.50042 14.8391 1.66113C14.1963 0.964704 13.2856 0.536133 12.3213 0.536133C10.3927 0.536133 8.78556 2.0897 8.78556 4.07185C8.78556 4.3397 8.83913 4.60756 8.89271 4.87542C5.94628 4.7147 3.37485 3.32185 1.60699 1.17899C1.28556 1.7147 1.12485 2.30399 1.12485 2.94685C1.12485 4.17899 1.7677 5.25042 2.67842 5.89328C2.08913 5.89328 1.55342 5.73256 1.07128 5.4647V5.51828C1.07128 7.23256 2.30342 8.62542 3.91056 8.94685C3.58913 9.00042 3.32128 9.05399 2.99985 9.05399C2.78556 9.05399 2.57128 9.05399 2.35699 9.00042C2.78556 10.3933 4.12485 11.4111 5.62485 11.4647C4.44628 12.429 2.8927 12.9647 1.23199 12.9647C0.964133 12.9647 0.642705 12.9647 0.374847 12.9111C1.98199 13.8754 3.85699 14.4647 5.83913 14.4647C12.3213 14.4647 15.857 9.10756 15.857 4.44685C15.857 4.28613 15.857 4.12542 15.857 4.01828C16.4998 3.48256 17.0891 2.89328 17.5713 2.19685Z" fill="#757185"/>
</svg>
